<svg id="b909bd13-a402-4b68-b10d-0ada61fa8c13" data-name="Layer 1" xmlns="http://www.w3.org/2000/svg" width="6.82in" height="3.17in" viewBox="0 0 491.25 228.42"><polyline points="200.26 95.02 236.77 94.85 260.56 118.27 296.28 118.2" fill="none" stroke="#393d4f" stroke-miterlimit="8" stroke-width="1.5"/><polyline points="200.26 118.31 236.84 118.47 260.67 94.85 295.45 95.02" fill="none" stroke="#393d4f" stroke-miterlimit="8" stroke-width="1.5"/><rect x="121.39" y="10.9" width="63.39" height="214.74" rx="2.1" fill="#8fd0b8"/><rect x="121.39" y="10.9" width="63.39" height="214.74" rx="2.1" fill="none" stroke="#393d4f" stroke-miterlimit="8" stroke-width="1.5"/><polygon points="181.06 87.5 187.9 87.5 187.9 90.6 208.73 92.77 208.73 97.11 187.9 99.27 187.9 102.37 181.06 102.37 181.06 87.5" fill="#a1dbf7" fill-rule="evenodd"/><polygon points="181.06 87.5 187.9 87.5 187.9 90.6 208.73 92.77 208.73 97.11 187.9 99.27 187.9 102.37 181.06 102.37 181.06 87.5" fill="none" stroke="#393d4f" stroke-miterlimit="8" stroke-width="1.5"/><polygon points="181.06 110.83 187.9 110.83 187.9 113.93 208.73 116.1 208.73 120.44 187.9 122.61 187.9 125.7 181.06 125.7 181.06 110.83" fill="#a1dbf7" fill-rule="evenodd"/><polygon points="181.06 110.83 187.9 110.83 187.9 113.93 208.73 116.1 208.73 120.44 187.9 122.61 187.9 125.7 181.06 125.7 181.06 110.83" fill="none" stroke="#393d4f" stroke-miterlimit="8" stroke-width="1.5"/><polygon points="181.06 133.96 187.9 133.96 187.9 137.06 208.73 139.22 208.73 143.56 187.9 145.73 187.9 148.83 181.06 148.83 181.06 133.96" fill="#a1dbf7" fill-rule="evenodd"/><polygon points="181.06 133.96 187.9 133.96 187.9 137.06 208.73 139.22 208.73 143.56 187.9 145.73 187.9 148.83 181.06 148.83 181.06 133.96" fill="none" stroke="#393d4f" stroke-miterlimit="8" stroke-width="1.5"/><path d="M165.77,100.3,164.27,97a.08.08,0,0,0-.07,0h-1.12A.05.05,0,0,0,163,97v3.27a.12.12,0,0,1,0,.1.14.14,0,0,1-.1,0h-1.41a.14.14,0,0,1-.1,0,.12.12,0,0,1,0-.1V92.15a.14.14,0,0,1,.14-.14h3.44a2.8,2.8,0,0,1,1.35.31,2.27,2.27,0,0,1,.9.89,2.7,2.7,0,0,1,.31,1.33,2.4,2.4,0,0,1-.4,1.4,2.28,2.28,0,0,1-1.14.82.05.05,0,0,0,0,.08l1.63,3.4a.13.13,0,0,1,0,.07c0,.06-.05.1-.14.1h-1.47A.18.18,0,0,1,165.77,100.3ZM163,93.52v2a.05.05,0,0,0,.06.06h1.57a1.18,1.18,0,0,0,.83-.3,1,1,0,0,0,.31-.78,1.06,1.06,0,0,0-.31-.79,1.18,1.18,0,0,0-.83-.3h-1.57A.05.05,0,0,0,163,93.52Z" fill="#393d4f"/><path d="M168.35,100.36a.11.11,0,0,1,0-.12l2.33-4a0,0,0,0,0,0-.07l-2.33-4,0-.07c0-.06,0-.09.13-.09H170a.2.2,0,0,1,.18.09l1.56,2.75c0,.05.05.05.08,0l1.56-2.75a.2.2,0,0,1,.18-.09h1.51a.16.16,0,0,1,.12,0,.11.11,0,0,1,0,.12l-2.33,4a.09.09,0,0,0,0,.07l2.33,4,0,.07c0,.06,0,.1-.13.1h-1.51a.21.21,0,0,1-.18-.1l-1.56-2.74s-.05,0-.08,0l-1.57,2.74a.21.21,0,0,1-.18.1h-1.51A.14.14,0,0,1,168.35,100.36Z" fill="#393d4f"/><path d="M139,26.64a2.68,2.68,0,0,1-1.09-1,2.84,2.84,0,0,1-.39-1.5V18.64a.18.18,0,0,1,0-.1.21.21,0,0,1,.11,0h1.4a.18.18,0,0,1,.1,0,.13.13,0,0,1,0,.1v5.49a1.42,1.42,0,0,0,.39,1,1.36,1.36,0,0,0,1,.39,1.35,1.35,0,0,0,1-.39,1.38,1.38,0,0,0,.39-1V18.64a.13.13,0,0,1,0-.1.18.18,0,0,1,.1,0h1.41a.14.14,0,0,1,.14.14v5.48a2.84,2.84,0,0,1-.39,1.5,2.68,2.68,0,0,1-1.09,1,3.87,3.87,0,0,1-3.26,0Z" fill="#393d4f"/><path d="M150,26.78l-.36-1.18a.05.05,0,0,0-.06,0h-2.95a.07.07,0,0,0-.06,0l-.35,1.18a.14.14,0,0,1-.15.12h-1.53a.14.14,0,0,1-.11,0,.18.18,0,0,1,0-.13l2.6-8.11a.14.14,0,0,1,.15-.12H149a.15.15,0,0,1,.16.12l2.59,8.11a.13.13,0,0,1,0,.06c0,.07,0,.11-.13.11h-1.52A.16.16,0,0,1,150,26.78Zm-3-2.53h2.11s.07,0,0-.07l-1.08-3.57s0,0,0,0l0,0L147,24.18C147,24.23,147,24.25,147,24.25Z" fill="#393d4f"/><path d="M157,26.79l-1.5-3.32s0,0-.07,0H154.3a.05.05,0,0,0-.06.06v3.28a.14.14,0,0,1-.14.14h-1.41a.14.14,0,0,1-.14-.14V18.64a.13.13,0,0,1,0-.1.18.18,0,0,1,.1,0h3.44a2.8,2.8,0,0,1,1.35.31,2.33,2.33,0,0,1,.9.89,2.72,2.72,0,0,1,.31,1.33,2.32,2.32,0,0,1-.41,1.4,2.16,2.16,0,0,1-1.13.82s-.06.05,0,.09l1.63,3.39a.26.26,0,0,1,0,.07c0,.07-.05.1-.14.1h-1.47A.18.18,0,0,1,157,26.79ZM154.24,20v2a.05.05,0,0,0,.06.06h1.57a1.13,1.13,0,0,0,.82-.3A1,1,0,0,0,157,21a1,1,0,0,0-.32-.78,1.1,1.1,0,0,0-.82-.31H154.3A.05.05,0,0,0,154.24,20Z" fill="#393d4f"/><path d="M165.5,18.54a.13.13,0,0,1,0,.1v1.18a.14.14,0,0,1-.14.14h-2.15a.05.05,0,0,0-.06.06v6.74a.14.14,0,0,1-.14.14h-1.41a.14.14,0,0,1-.14-.14V20a.05.05,0,0,0-.06-.06h-2.09a.14.14,0,0,1-.14-.14V18.64a.13.13,0,0,1,0-.1.18.18,0,0,1,.1,0h6.05A.18.18,0,0,1,165.5,18.54Z" fill="#393d4f"/><path d="M167.56,18.5H169a.15.15,0,0,1,.1,0,.14.14,0,0,1,0,.1v8.12a.14.14,0,0,1,0,.1.12.12,0,0,1-.1,0h-1.4a.12.12,0,0,1-.1,0,.14.14,0,0,1,0-.1V20.18a.06.06,0,0,0,0-.05s0,0-.05,0l-1.19.32,0,0c-.08,0-.11-.05-.11-.14l0-1a.18.18,0,0,1,.11-.17l1.26-.58A.3.3,0,0,1,167.56,18.5Z" fill="#393d4f"/><path d="M168.12,115.18a.15.15,0,0,1,0,.1v1.17a.14.14,0,0,1-.15.15h-2.14a.05.05,0,0,0-.06.06v6.73a.14.14,0,0,1-.05.1.12.12,0,0,1-.1,0h-1.4a.12.12,0,0,1-.1,0,.14.14,0,0,1,0-.1v-6.73a.05.05,0,0,0-.06-.06H162a.14.14,0,0,1-.15-.15v-1.17a.15.15,0,0,1,0-.1.16.16,0,0,1,.11-.05h6A.16.16,0,0,1,168.12,115.18Z" fill="#393d4f"/><path d="M168.89,123.49a.11.11,0,0,1,0-.12l2.33-4a0,0,0,0,0,0-.07l-2.33-4,0-.07c0-.06,0-.1.13-.1h1.52a.21.21,0,0,1,.18.1l1.56,2.75s0,0,.08,0l1.56-2.75a.21.21,0,0,1,.18-.1h1.51a.17.17,0,0,1,.12.05.11.11,0,0,1,0,.12l-2.33,4a.09.09,0,0,0,0,.07l2.33,4,0,.07c0,.06,0,.09-.13.09h-1.51a.2.2,0,0,1-.18-.09l-1.56-2.74s0,0-.08,0l-1.57,2.74a.2.2,0,0,1-.18.09H169C169,123.53,168.91,123.52,168.89,123.49Z" fill="#393d4f"/><rect x="311.35" y="10.9" width="63.39" height="214.74" rx="2.1" fill="#8fd0b8"/><rect x="311.35" y="10.9" width="63.39" height="214.74" rx="2.1" fill="none" stroke="#393d4f" stroke-miterlimit="8" stroke-width="1.5"/><polygon points="371.02 87.5 377.81 87.5 377.81 90.6 398.49 92.77 398.49 97.11 377.81 99.27 377.81 102.37 371.02 102.37 371.02 87.5" fill="#a1dbf7" fill-rule="evenodd"/><polygon points="371.02 87.5 377.81 87.5 377.81 90.6 398.49 92.77 398.49 97.11 377.81 99.27 377.81 102.37 371.02 102.37 371.02 87.5" fill="none" stroke="#393d4f" stroke-miterlimit="8" stroke-width="1.5"/><polygon points="371.02 110.83 377.81 110.83 377.81 113.93 398.49 116.1 398.49 120.44 377.81 122.61 377.81 125.7 371.02 125.7 371.02 110.83" fill="#a1dbf7" fill-rule="evenodd"/><polygon points="371.02 110.83 377.81 110.83 377.81 113.93 398.49 116.1 398.49 120.44 377.81 122.61 377.81 125.7 371.02 125.7 371.02 110.83" fill="none" stroke="#393d4f" stroke-miterlimit="8" stroke-width="1.5"/><polygon points="371.02 133.96 377.81 133.96 377.81 137.06 398.49 139.22 398.49 143.56 377.81 145.73 377.81 148.83 371.02 148.83 371.02 133.96" fill="#a1dbf7" fill-rule="evenodd"/><polygon points="371.02 133.96 377.81 133.96 377.81 137.06 398.49 139.22 398.49 143.56 377.81 145.73 377.81 148.83 371.02 148.83 371.02 133.96" fill="none" stroke="#393d4f" stroke-miterlimit="8" stroke-width="1.5"/><polygon points="315.07 87.5 308.23 87.5 308.23 90.6 287.4 92.77 287.4 97.11 308.23 99.27 308.23 102.37 315.07 102.37 315.07 87.5" fill="#a1dbf7" fill-rule="evenodd"/><polygon points="315.07 87.5 308.23 87.5 308.23 90.6 287.4 92.77 287.4 97.11 308.23 99.27 308.23 102.37 315.07 102.37 315.07 87.5" fill="none" stroke="#393d4f" stroke-miterlimit="8" stroke-width="1.5"/><polygon points="315.07 110.83 308.23 110.83 308.23 113.93 287.4 116.1 287.4 120.44 308.23 122.61 308.23 125.7 315.07 125.7 315.07 110.83" fill="#a1dbf7" fill-rule="evenodd"/><polygon points="315.07 110.83 308.23 110.83 308.23 113.93 287.4 116.1 287.4 120.44 308.23 122.61 308.23 125.7 315.07 125.7 315.07 110.83" fill="none" stroke="#393d4f" stroke-miterlimit="8" stroke-width="1.5"/><polygon points="315.07 133.96 308.23 133.96 308.23 137.06 287.4 139.22 287.4 143.56 308.23 145.73 308.23 148.83 315.07 148.83 315.07 133.96" fill="#a1dbf7" fill-rule="evenodd"/><polygon points="315.07 133.96 308.23 133.96 308.23 137.06 287.4 139.22 287.4 143.56 308.23 145.73 308.23 148.83 315.07 148.83 315.07 133.96" fill="none" stroke="#393d4f" stroke-miterlimit="8" stroke-width="1.5"/><polygon points="125.1 87.5 118.31 87.5 118.31 90.6 97.64 92.77 97.64 97.11 118.31 99.27 118.31 102.37 125.1 102.37 125.1 87.5" fill="#a1dbf7" fill-rule="evenodd"/><polygon points="125.1 87.5 118.31 87.5 118.31 90.6 97.64 92.77 97.64 97.11 118.31 99.27 118.31 102.37 125.1 102.37 125.1 87.5" fill="none" stroke="#393d4f" stroke-miterlimit="8" stroke-width="1.5"/><polygon points="125.1 110.83 118.31 110.83 118.31 113.93 97.64 116.1 97.64 120.44 118.31 122.61 118.31 125.7 125.1 125.7 125.1 110.83" fill="#a1dbf7" fill-rule="evenodd"/><polygon points="125.1 110.83 118.31 110.83 118.31 113.93 97.64 116.1 97.64 120.44 118.31 122.61 118.31 125.7 125.1 125.7 125.1 110.83" fill="none" stroke="#393d4f" stroke-miterlimit="8" stroke-width="1.5"/><polygon points="125.1 133.96 118.31 133.96 118.31 137.06 97.64 139.22 97.64 143.56 118.31 145.73 118.31 148.83 125.1 148.83 125.1 133.96" fill="#a1dbf7" fill-rule="evenodd"/><polygon points="125.1 133.96 118.31 133.96 118.31 137.06 97.64 139.22 97.64 143.56 118.31 145.73 118.31 148.83 125.1 148.83 125.1 133.96" fill="none" stroke="#393d4f" stroke-miterlimit="8" stroke-width="1.5"/><polygon points="181.06 17.92 187.9 17.92 187.9 21.01 208.73 23.18 208.73 27.52 187.9 29.69 187.9 32.78 181.06 32.78 181.06 17.92" fill="#a1dbf7" fill-rule="evenodd"/><polygon points="181.06 17.92 187.9 17.92 187.9 21.01 208.73 23.18 208.73 27.52 187.9 29.69 187.9 32.78 181.06 32.78 181.06 17.92" fill="none" stroke="#393d4f" stroke-miterlimit="8" stroke-width="1.5"/><polygon points="181.06 41.25 187.9 41.25 187.9 44.3 208.73 46.44 208.73 50.72 187.9 52.86 187.9 55.91 181.06 55.91 181.06 41.25" fill="#a1dbf7" fill-rule="evenodd"/><polygon points="181.06 41.25 187.9 41.25 187.9 44.3 208.73 46.44 208.73 50.72 187.9 52.86 187.9 55.91 181.06 55.91 181.06 41.25" fill="none" stroke="#393d4f" stroke-miterlimit="8" stroke-width="1.5"/><polygon points="181.06 64.38 187.9 64.38 187.9 67.47 208.73 69.64 208.73 73.98 187.9 76.15 187.9 79.24 181.06 79.24 181.06 64.38" fill="#a1dbf7" fill-rule="evenodd"/><polygon points="181.06 64.38 187.9 64.38 187.9 67.47 208.73 69.64 208.73 73.98 187.9 76.15 187.9 79.24 181.06 79.24 181.06 64.38" fill="none" stroke="#393d4f" stroke-miterlimit="8" stroke-width="1.5"/><polygon points="181.06 156.67 187.9 156.67 187.9 159.77 208.73 161.94 208.73 166.28 187.9 168.45 187.9 171.54 181.06 171.54 181.06 156.67" fill="#a1dbf7" fill-rule="evenodd"/><polygon points="181.06 156.67 187.9 156.67 187.9 159.77 208.73 161.94 208.73 166.28 187.9 168.45 187.9 171.54 181.06 171.54 181.06 156.67" fill="none" stroke="#393d4f" stroke-miterlimit="8" stroke-width="1.5"/><polygon points="181.06 180.01 187.9 180.01 187.9 183.06 208.73 185.2 208.73 189.47 187.9 191.61 187.9 194.67 181.06 194.67 181.06 180.01" fill="#a1dbf7" fill-rule="evenodd"/><polygon points="181.06 180.01 187.9 180.01 187.9 183.06 208.73 185.2 208.73 189.47 187.9 191.61 187.9 194.67 181.06 194.67 181.06 180.01" fill="none" stroke="#393d4f" stroke-miterlimit="8" stroke-width="1.5"/><polygon points="181.06 203.13 187.9 203.13 187.9 206.23 208.73 208.4 208.73 212.73 187.9 214.9 187.9 218 181.06 218 181.06 203.13" fill="#a1dbf7" fill-rule="evenodd"/><polygon points="181.06 203.13 187.9 203.13 187.9 206.23 208.73 208.4 208.73 212.73 187.9 214.9 187.9 218 181.06 218 181.06 203.13" fill="none" stroke="#393d4f" stroke-miterlimit="8" stroke-width="1.5"/><polygon points="124.9 17.92 118.11 17.92 118.11 21.01 97.44 23.18 97.44 27.52 118.11 29.69 118.11 32.78 124.9 32.78 124.9 17.92" fill="#a1dbf7" fill-rule="evenodd"/><polygon points="124.9 17.92 118.11 17.92 118.11 21.01 97.44 23.18 97.44 27.52 118.11 29.69 118.11 32.78 124.9 32.78 124.9 17.92" fill="none" stroke="#393d4f" stroke-miterlimit="8" stroke-width="1.5"/><polygon points="124.9 41.25 118.11 41.25 118.11 44.3 97.44 46.44 97.44 50.72 118.11 52.86 118.11 55.91 124.9 55.91 124.9 41.25" fill="#a1dbf7" fill-rule="evenodd"/><polygon points="124.9 41.25 118.11 41.25 118.11 44.3 97.44 46.44 97.44 50.72 118.11 52.86 118.11 55.91 124.9 55.91 124.9 41.25" fill="none" stroke="#393d4f" stroke-miterlimit="8" stroke-width="1.5"/><polygon points="124.9 64.38 118.11 64.38 118.11 67.47 97.44 69.64 97.44 73.98 118.11 76.15 118.11 79.24 124.9 79.24 124.9 64.38" fill="#a1dbf7" fill-rule="evenodd"/><polygon points="124.9 64.38 118.11 64.38 118.11 67.47 97.44 69.64 97.44 73.98 118.11 76.15 118.11 79.24 124.9 79.24 124.9 64.38" fill="none" stroke="#393d4f" stroke-miterlimit="8" stroke-width="1.5"/><polygon points="124.9 156.67 118.11 156.67 118.11 159.77 97.44 161.94 97.44 166.28 118.11 168.45 118.11 171.54 124.9 171.54 124.9 156.67" fill="#a1dbf7" fill-rule="evenodd"/><polygon points="124.9 156.67 118.11 156.67 118.11 159.77 97.44 161.94 97.44 166.28 118.11 168.45 118.11 171.54 124.9 171.54 124.9 156.67" fill="none" stroke="#393d4f" stroke-miterlimit="8" stroke-width="1.5"/><polygon points="124.9 180.01 118.11 180.01 118.11 183.06 97.44 185.2 97.44 189.47 118.11 191.61 118.11 194.67 124.9 194.67 124.9 180.01" fill="#a1dbf7" fill-rule="evenodd"/><polygon points="124.9 180.01 118.11 180.01 118.11 183.06 97.44 185.2 97.44 189.47 118.11 191.61 118.11 194.67 124.9 194.67 124.9 180.01" fill="none" stroke="#393d4f" stroke-miterlimit="8" stroke-width="1.5"/><polygon points="124.9 203.13 118.11 203.13 118.11 206.23 97.44 208.4 97.44 212.73 118.11 214.9 118.11 218 124.9 218 124.9 203.13" fill="#a1dbf7" fill-rule="evenodd"/><polygon points="124.9 203.13 118.11 203.13 118.11 206.23 97.44 208.4 97.44 212.73 118.11 214.9 118.11 218 124.9 218 124.9 203.13" fill="none" stroke="#393d4f" stroke-miterlimit="8" stroke-width="1.5"/><polygon points="371.02 17.92 377.81 17.92 377.81 21.01 398.49 23.18 398.49 27.52 377.81 29.69 377.81 32.78 371.02 32.78 371.02 17.92" fill="#a1dbf7" fill-rule="evenodd"/><polygon points="371.02 17.92 377.81 17.92 377.81 21.01 398.49 23.18 398.49 27.52 377.81 29.69 377.81 32.78 371.02 32.78 371.02 17.92" fill="none" stroke="#393d4f" stroke-miterlimit="8" stroke-width="1.5"/><polygon points="371.02 41.25 377.81 41.25 377.81 44.3 398.49 46.44 398.49 50.72 377.81 52.86 377.81 55.91 371.02 55.91 371.02 41.25" fill="#a1dbf7" fill-rule="evenodd"/><polygon points="371.02 41.25 377.81 41.25 377.81 44.3 398.49 46.44 398.49 50.72 377.81 52.86 377.81 55.91 371.02 55.91 371.02 41.25" fill="none" stroke="#393d4f" stroke-miterlimit="8" stroke-width="1.5"/><polygon points="371.02 64.38 377.81 64.38 377.81 67.47 398.49 69.64 398.49 73.98 377.81 76.15 377.81 79.24 371.02 79.24 371.02 64.38" fill="#a1dbf7" fill-rule="evenodd"/><polygon points="371.02 64.38 377.81 64.38 377.81 67.47 398.49 69.64 398.49 73.98 377.81 76.15 377.81 79.24 371.02 79.24 371.02 64.38" fill="none" stroke="#393d4f" stroke-miterlimit="8" stroke-width="1.5"/><polygon points="371.02 156.67 377.81 156.67 377.81 159.77 398.49 161.94 398.49 166.28 377.81 168.45 377.81 171.54 371.02 171.54 371.02 156.67" fill="#a1dbf7" fill-rule="evenodd"/><polygon points="371.02 156.67 377.81 156.67 377.81 159.77 398.49 161.94 398.49 166.28 377.81 168.45 377.81 171.54 371.02 171.54 371.02 156.67" fill="none" stroke="#393d4f" stroke-miterlimit="8" stroke-width="1.5"/><polygon points="371.02 180.01 377.81 180.01 377.81 183.06 398.49 185.2 398.49 189.47 377.81 191.61 377.81 194.67 371.02 194.67 371.02 180.01" fill="#a1dbf7" fill-rule="evenodd"/><polygon points="371.02 180.01 377.81 180.01 377.81 183.06 398.49 185.2 398.49 189.47 377.81 191.61 377.81 194.67 371.02 194.67 371.02 180.01" fill="none" stroke="#393d4f" stroke-miterlimit="8" stroke-width="1.5"/><polygon points="371.02 203.13 377.81 203.13 377.81 206.23 398.49 208.4 398.49 212.73 377.81 214.9 377.81 218 371.02 218 371.02 203.13" fill="#a1dbf7" fill-rule="evenodd"/><polygon points="371.02 203.13 377.81 203.13 377.81 206.23 398.49 208.4 398.49 212.73 377.81 214.9 377.81 218 371.02 218 371.02 203.13" fill="none" stroke="#393d4f" stroke-miterlimit="8" stroke-width="1.5"/><polygon points="315.07 17.92 308.23 17.92 308.23 21.01 287.4 23.18 287.4 27.52 308.23 29.69 308.23 32.78 315.07 32.78 315.07 17.92" fill="#a1dbf7" fill-rule="evenodd"/><polygon points="315.07 17.92 308.23 17.92 308.23 21.01 287.4 23.18 287.4 27.52 308.23 29.69 308.23 32.78 315.07 32.78 315.07 17.92" fill="none" stroke="#393d4f" stroke-miterlimit="8" stroke-width="1.5"/><polygon points="315.07 41.25 308.23 41.25 308.23 44.3 287.4 46.44 287.4 50.72 308.23 52.86 308.23 55.91 315.07 55.91 315.07 41.25" fill="#a1dbf7" fill-rule="evenodd"/><polygon points="315.07 41.25 308.23 41.25 308.23 44.3 287.4 46.44 287.4 50.72 308.23 52.86 308.23 55.91 315.07 55.91 315.07 41.25" fill="none" stroke="#393d4f" stroke-miterlimit="8" stroke-width="1.5"/><polygon points="315.07 64.38 308.23 64.38 308.23 67.47 287.4 69.64 287.4 73.98 308.23 76.15 308.23 79.24 315.07 79.24 315.07 64.38" fill="#a1dbf7" fill-rule="evenodd"/><polygon points="315.07 64.38 308.23 64.38 308.23 67.47 287.4 69.64 287.4 73.98 308.23 76.15 308.23 79.24 315.07 79.24 315.07 64.38" fill="none" stroke="#393d4f" stroke-miterlimit="8" stroke-width="1.5"/><polygon points="315.07 156.67 308.23 156.67 308.23 159.77 287.4 161.94 287.4 166.28 308.23 168.45 308.23 171.54 315.07 171.54 315.07 156.67" fill="#a1dbf7" fill-rule="evenodd"/><polygon points="315.07 156.67 308.23 156.67 308.23 159.77 287.4 161.94 287.4 166.28 308.23 168.45 308.23 171.54 315.07 171.54 315.07 156.67" fill="none" stroke="#393d4f" stroke-miterlimit="8" stroke-width="1.5"/><polygon points="315.07 180.01 308.23 180.01 308.23 183.06 287.4 185.2 287.4 189.47 308.23 191.61 308.23 194.67 315.07 194.67 315.07 180.01" fill="#a1dbf7" fill-rule="evenodd"/><polygon points="315.07 180.01 308.23 180.01 308.23 183.06 287.4 185.2 287.4 189.47 308.23 191.61 308.23 194.67 315.07 194.67 315.07 180.01" fill="none" stroke="#393d4f" stroke-miterlimit="8" stroke-width="1.5"/><polygon points="315.07 203.13 308.23 203.13 308.23 206.23 287.4 208.4 287.4 212.73 308.23 214.9 308.23 218 315.07 218 315.07 203.13" fill="#a1dbf7" fill-rule="evenodd"/><polygon points="315.07 203.13 308.23 203.13 308.23 206.23 287.4 208.4 287.4 212.73 308.23 214.9 308.23 218 315.07 218 315.07 203.13" fill="none" stroke="#393d4f" stroke-miterlimit="8" stroke-width="1.5"/><rect x="0.75" y="0.75" width="63.4" height="226.92" rx="3.63" fill="#f8a68c"/><rect x="0.75" y="0.75" width="63.4" height="226.92" rx="3.63" fill="none" stroke="#393d4f" stroke-miterlimit="8" stroke-width="1.5"/><path d="M9.7,12.4a.12.12,0,0,1,0-.1V4.19a.14.14,0,0,1,0-.1.12.12,0,0,1,.1,0h3a3.74,3.74,0,0,1,1.58.31,2.51,2.51,0,0,1,1,.9,2.46,2.46,0,0,1,.37,1.33V9.9a2.37,2.37,0,0,1-1.42,2.23,3.74,3.74,0,0,1-1.58.32h-3A.12.12,0,0,1,9.7,12.4ZM11.41,11h1.45a1.13,1.13,0,0,0,.89-.37,1.46,1.46,0,0,0,.36-1V6.87a1.42,1.42,0,0,0-.35-1,1.16,1.16,0,0,0-.91-.37H11.41a.05.05,0,0,0-.06.06v5.37A.05.05,0,0,0,11.41,11Z" fill="#393d4f"/><path d="M20.82,6.45a2.37,2.37,0,0,1,.95.74,1.71,1.71,0,0,1,.34,1V12.3a.12.12,0,0,1,0,.1.14.14,0,0,1-.1,0H20.56a.14.14,0,0,1-.1,0,.12.12,0,0,1,0-.1v-.39a.06.06,0,0,0,0-.05,0,0,0,0,0,0,0,1.92,1.92,0,0,1-1.62.66,2.41,2.41,0,0,1-1.52-.45,1.64,1.64,0,0,1-.57-1.35,1.73,1.73,0,0,1,.65-1.43,2.92,2.92,0,0,1,1.84-.51h1.23a.05.05,0,0,0,.06-.06V8.47a.78.78,0,0,0-.24-.61,1,1,0,0,0-.72-.23,1.29,1.29,0,0,0-.62.14.61.61,0,0,0-.32.37q0,.13-.15.12l-1.45-.19c-.1,0-.14-.06-.14-.11a1.61,1.61,0,0,1,.41-.91,2.18,2.18,0,0,1,.93-.64,3.58,3.58,0,0,1,1.3-.23A3.46,3.46,0,0,1,20.82,6.45ZM20.06,11a.86.86,0,0,0,.36-.71V9.87a.05.05,0,0,0-.06-.06h-.87a1.45,1.45,0,0,0-.84.2.69.69,0,0,0-.08,1.09,1,1,0,0,0,.61.18A1.42,1.42,0,0,0,20.06,11Z" fill="#393d4f"/><path d="M26.8,7.59a.15.15,0,0,1-.11,0H25.54a.05.05,0,0,0-.06.06v2.55a.9.9,0,0,0,.17.59.66.66,0,0,0,.52.19h.39a.15.15,0,0,1,.11,0,.18.18,0,0,1,0,.1V12.3c0,.09-.05.14-.15.16l-.72,0a2.66,2.66,0,0,1-1.48-.33,1.41,1.41,0,0,1-.51-1.24V7.69a.05.05,0,0,0-.06-.06h-.68a.12.12,0,0,1-.1,0,.14.14,0,0,1-.05-.1V6.42a.14.14,0,0,1,.05-.1.12.12,0,0,1,.1,0h.68a.05.05,0,0,0,.06-.06V4.79A.14.14,0,0,1,24,4.65h1.35a.14.14,0,0,1,.14.14V6.22a.05.05,0,0,0,.06.06h1.15a.15.15,0,0,1,.11,0,.18.18,0,0,1,0,.1V7.49A.18.18,0,0,1,26.8,7.59Z" fill="#393d4f"/><path d="M31.71,6.45a2.34,2.34,0,0,1,1,.74,1.77,1.77,0,0,1,.34,1V12.3a.18.18,0,0,1-.15.15h-1.4a.12.12,0,0,1-.1,0,.12.12,0,0,1,0-.1v-.39a0,0,0,0,0,0-.05s0,0-.05,0a1.89,1.89,0,0,1-1.62.66,2.38,2.38,0,0,1-1.51-.45,1.65,1.65,0,0,1-.58-1.35,1.73,1.73,0,0,1,.65-1.43A2.93,2.93,0,0,1,30,8.8h1.23a.05.05,0,0,0,.06-.06V8.47a.78.78,0,0,0-.25-.61,1,1,0,0,0-.71-.23,1.26,1.26,0,0,0-.62.14.58.58,0,0,0-.32.37.14.14,0,0,1-.16.12l-1.45-.19c-.1,0-.14-.06-.13-.11a1.54,1.54,0,0,1,.4-.91A2.28,2.28,0,0,1,29,6.41a3.54,3.54,0,0,1,1.3-.23A3.41,3.41,0,0,1,31.71,6.45ZM31,11a.89.89,0,0,0,.36-.71V9.87a.05.05,0,0,0-.06-.06h-.87a1.45,1.45,0,0,0-.84.2.69.69,0,0,0-.08,1.09.94.94,0,0,0,.61.18A1.46,1.46,0,0,0,31,11Z" fill="#393d4f"/><path d="M41.68,8.14a2,2,0,0,1,1.14,1.95A2,2,0,0,1,42,11.85a3.36,3.36,0,0,1-2.08.6h-3.1a.16.16,0,0,1-.11,0,.15.15,0,0,1,0-.1V4.19a.18.18,0,0,1,0-.1.15.15,0,0,1,.11,0h3c1.9,0,2.84.76,2.84,2.3a1.79,1.79,0,0,1-1,1.72S41.63,8.11,41.68,8.14ZM38.39,5.56V7.43a.05.05,0,0,0,.06.06h1.41a1.33,1.33,0,0,0,.87-.26.9.9,0,0,0,.32-.72.92.92,0,0,0-.32-.74,1.28,1.28,0,0,0-.87-.27H38.45A.05.05,0,0,0,38.39,5.56Zm2.43,5.14a1,1,0,0,0,.31-.77,1,1,0,0,0-.31-.78,1.26,1.26,0,0,0-.88-.28H38.45a.05.05,0,0,0-.06.06v2a.05.05,0,0,0,.06.06H40A1.25,1.25,0,0,0,40.82,10.7Z" fill="#393d4f"/><path d="M47.68,6.32a.12.12,0,0,1,.1,0h1.4a.12.12,0,0,1,.1,0,.14.14,0,0,1,0,.1V12.3a.18.18,0,0,1-.15.15h-1.4a.18.18,0,0,1-.15-.15v-.41s0,0,0,0,0,0,0,0a1.73,1.73,0,0,1-1.49.65,2.12,2.12,0,0,1-1.5-.55A2,2,0,0,1,44,10.43v-4a.14.14,0,0,1,.14-.14h1.39a.12.12,0,0,1,.1,0,.14.14,0,0,1,.05.1V10a1.16,1.16,0,0,0,.25.78.91.91,0,0,0,.72.3.93.93,0,0,0,.67-.25,1,1,0,0,0,.32-.64V6.42A.14.14,0,0,1,47.68,6.32Z" fill="#393d4f"/><path d="M51.63,12.3a2.13,2.13,0,0,1-.93-.63,1.45,1.45,0,0,1-.33-.93v-.12a.14.14,0,0,1,.14-.14h1.34a.14.14,0,0,1,.14.14h0a.53.53,0,0,0,.29.45,1.34,1.34,0,0,0,.74.19,1.2,1.2,0,0,0,.66-.16.46.46,0,0,0,.25-.4.35.35,0,0,0-.21-.33,3.93,3.93,0,0,0-.71-.23,6.12,6.12,0,0,1-.89-.27,3.77,3.77,0,0,1-1.22-.65,1.34,1.34,0,0,1-.46-1.1,1.66,1.66,0,0,1,.69-1.41A3,3,0,0,1,53,6.19a3.53,3.53,0,0,1,1.35.25,2,2,0,0,1,.89.69,1.71,1.71,0,0,1,.32,1,.18.18,0,0,1,0,.1.15.15,0,0,1-.11,0H54.09A.14.14,0,0,1,54,8.14a.53.53,0,0,0-.27-.45,1.51,1.51,0,0,0-1.37,0,.45.45,0,0,0-.25.39.38.38,0,0,0,.25.36,4.19,4.19,0,0,0,.82.26l.3.07.36.11a3.72,3.72,0,0,1,1.34.64,1.41,1.41,0,0,1,.5,1.16A1.6,1.6,0,0,1,54.92,12a3.19,3.19,0,0,1-1.89.5A4,4,0,0,1,51.63,12.3Z" fill="#393d4f"/><path d="M30.92,25.33a2,2,0,0,1,1.14,2,2.07,2.07,0,0,1-.79,1.76,3.42,3.42,0,0,1-2.08.59h-3.1a.15.15,0,0,1-.11,0,.18.18,0,0,1,0-.1V21.38a.18.18,0,0,1,0-.1.15.15,0,0,1,.11,0h3c1.89,0,2.84.77,2.84,2.3a1.78,1.78,0,0,1-1,1.72C30.87,25.28,30.87,25.31,30.92,25.33Zm-3.29-2.58v1.87a.05.05,0,0,0,.06.06H29.1a1.27,1.27,0,0,0,.87-.26.9.9,0,0,0,.32-.72A.93.93,0,0,0,30,23a1.28,1.28,0,0,0-.87-.27H27.69A.05.05,0,0,0,27.63,22.75Zm2.43,5.14a1.11,1.11,0,0,0,0-1.54,1.26,1.26,0,0,0-.88-.29H27.69a.05.05,0,0,0-.06.06v2a.05.05,0,0,0,.06.06h1.5A1.25,1.25,0,0,0,30.06,27.89Z" fill="#393d4f"/><path d="M33.51,22.51a.93.93,0,0,1-.27-.68.89.89,0,0,1,.95-.95.94.94,0,0,1,.68.26,1,1,0,0,1,0,1.37,1,1,0,0,1-1.35,0Zm-.15,7.09a.18.18,0,0,1,0-.1V23.6a.18.18,0,0,1,0-.1.15.15,0,0,1,.11,0h1.4a.14.14,0,0,1,.14.14v5.9a.14.14,0,0,1-.14.14h-1.4A.15.15,0,0,1,33.36,29.6Z" fill="#393d4f"/><path d="M39.83,24.79a.18.18,0,0,1-.1,0H38.58a.05.05,0,0,0-.06.06v2.54a.89.89,0,0,0,.16.59.64.64,0,0,0,.52.19h.4a.18.18,0,0,1,.1,0,.15.15,0,0,1,0,.11V29.5a.14.14,0,0,1-.14.15l-.72,0a2.7,2.7,0,0,1-1.49-.33,1.4,1.4,0,0,1-.5-1.25V24.89a.05.05,0,0,0-.06-.06h-.69a.18.18,0,0,1-.1,0,.15.15,0,0,1,0-.11V23.62a.15.15,0,0,1,0-.11.18.18,0,0,1,.1,0h.69a.05.05,0,0,0,.06-.06V22a.14.14,0,0,1,.14-.14h1.34a.15.15,0,0,1,.11,0,.18.18,0,0,1,0,.1v1.43a.05.05,0,0,0,.06.06h1.15a.18.18,0,0,1,.1,0,.15.15,0,0,1,0,.11v1.06A.15.15,0,0,1,39.83,24.79Z" fill="#393d4f"/><path d="M44,29a2.66,2.66,0,0,1-.77-2V23.86a2.59,2.59,0,0,1,.77-2,3.32,3.32,0,0,1,4.18,0,2.56,2.56,0,0,1,.77,2V27a2.62,2.62,0,0,1-.77,2A3.32,3.32,0,0,1,44,29Zm2.95-1a1.21,1.21,0,0,0,.31-.88v-3.3a1.21,1.21,0,0,0-.31-.88,1.15,1.15,0,0,0-.86-.33,1.11,1.11,0,0,0-.85.33,1.22,1.22,0,0,0-.32.88v3.3a1.22,1.22,0,0,0,.32.88,1.11,1.11,0,0,0,.85.33A1.15,1.15,0,0,0,46.94,28Z" fill="#393d4f"/><path d="M33.51,47.89a2.29,2.29,0,0,1,.35,3.71,3.35,3.35,0,0,1-2.07.6H28.68a.15.15,0,0,1-.1,0,.16.16,0,0,1,0-.11V43.94a.14.14,0,0,1,0-.1.12.12,0,0,1,.1,0h3c1.9,0,2.84.77,2.84,2.3a1.79,1.79,0,0,1-1,1.72S33.47,47.87,33.51,47.89Zm-3.28-2.58v1.87a.05.05,0,0,0,.06.06h1.4a1.36,1.36,0,0,0,.88-.26.93.93,0,0,0,.31-.72,1,1,0,0,0-.31-.74,1.3,1.3,0,0,0-.88-.27h-1.4A.05.05,0,0,0,30.23,45.31Zm2.42,5.14a1,1,0,0,0,.31-.77,1,1,0,0,0-.31-.78,1.31,1.31,0,0,0-.88-.28H30.29a.05.05,0,0,0-.06.06v2a.05.05,0,0,0,.06.06h1.5A1.24,1.24,0,0,0,32.65,50.45Z" fill="#393d4f"/><path d="M36.1,45.06a.9.9,0,0,1-.27-.67.89.89,0,0,1,1-1,.91.91,0,0,1,.95,1,.9.9,0,0,1-.27.67,1,1,0,0,1-1.36,0ZM36,52.16a.16.16,0,0,1-.05-.11V46.16a.14.14,0,0,1,.05-.1.12.12,0,0,1,.1,0h1.4a.12.12,0,0,1,.1,0,.14.14,0,0,1,0,.1v5.89a.16.16,0,0,1,0,.11.15.15,0,0,1-.1,0h-1.4A.15.15,0,0,1,36,52.16Z" fill="#393d4f"/><path d="M42.42,47.34a.12.12,0,0,1-.1,0H41.17a.05.05,0,0,0-.06.06V50a.9.9,0,0,0,.16.59.64.64,0,0,0,.52.19h.4a.14.14,0,0,1,.14.14v1.14a.15.15,0,0,1-.14.16c-.34,0-.58,0-.72,0A2.72,2.72,0,0,1,40,51.9a1.41,1.41,0,0,1-.5-1.24V47.45a.05.05,0,0,0-.06-.06h-.69a.14.14,0,0,1-.1,0,.12.12,0,0,1,0-.1V46.17a.14.14,0,0,1,.14-.14h.69a.05.05,0,0,0,.06-.06V44.54a.14.14,0,0,1,.14-.14H41a.14.14,0,0,1,.14.14V46a.05.05,0,0,0,.06.06h1.15a.12.12,0,0,1,.1,0,.14.14,0,0,1,0,.1v1.07A.12.12,0,0,1,42.42,47.34Z" fill="#393d4f"/><path d="M47.24,43.8h1.45a.15.15,0,0,1,.11,0,.18.18,0,0,1,0,.1v8.11a.14.14,0,0,1-.15.15h-1.4a.18.18,0,0,1-.1,0,.15.15,0,0,1,0-.11V45.48s0,0,0,0,0,0,0,0l-1.18.32h0c-.07,0-.11,0-.11-.13l0-1a.18.18,0,0,1,.11-.17l1.26-.59A.42.42,0,0,1,47.24,43.8Z" fill="#393d4f"/><path d="M31,71.12a2,2,0,0,1,1.14,1.95,2,2,0,0,1-.79,1.76,3.36,3.36,0,0,1-2.08.6h-3.1a.16.16,0,0,1-.11-.05.15.15,0,0,1,0-.1V67.17a.18.18,0,0,1,0-.1.15.15,0,0,1,.11,0h3c1.89,0,2.84.76,2.84,2.3a1.79,1.79,0,0,1-1,1.72C31,71.07,31,71.09,31,71.12Zm-3.29-2.58v1.87a.05.05,0,0,0,.06.06h1.41a1.33,1.33,0,0,0,.87-.26.9.9,0,0,0,.32-.72.92.92,0,0,0-.32-.74,1.28,1.28,0,0,0-.87-.27H27.81A.05.05,0,0,0,27.75,68.54Zm2.43,5.14a1.12,1.12,0,0,0,0-1.55,1.26,1.26,0,0,0-.88-.28H27.81a.05.05,0,0,0-.06.06v2a.05.05,0,0,0,.06.06h1.5A1.25,1.25,0,0,0,30.18,73.68Z" fill="#393d4f"/><path d="M33.63,68.29a.91.91,0,0,1-.27-.68.94.94,0,0,1,.26-.68.93.93,0,0,1,.69-.26.95.95,0,1,1-.68,1.62Zm-.15,7.09a.15.15,0,0,1,0-.1V69.39a.18.18,0,0,1,0-.1.15.15,0,0,1,.11,0H35a.14.14,0,0,1,.14.14v5.89a.12.12,0,0,1,0,.1.14.14,0,0,1-.1.05h-1.4A.16.16,0,0,1,33.48,75.38Z" fill="#393d4f"/><path d="M40,70.57a.13.13,0,0,1-.1,0H38.7a.05.05,0,0,0-.06.06v2.55a.9.9,0,0,0,.16.59.64.64,0,0,0,.52.19h.4a.14.14,0,0,1,.14.14v1.14a.15.15,0,0,1-.14.16l-.72,0a2.7,2.7,0,0,1-1.49-.33,1.38,1.38,0,0,1-.5-1.24V70.67a.05.05,0,0,0-.06-.06h-.69a.14.14,0,0,1-.14-.14V69.4a.14.14,0,0,1,.14-.14H37A.05.05,0,0,0,37,69.2V67.77a.14.14,0,0,1,.14-.14h1.34a.15.15,0,0,1,.11,0,.18.18,0,0,1,0,.1V69.2a.05.05,0,0,0,.06.06h1.15a.14.14,0,0,1,.14.14v1.07A.13.13,0,0,1,40,70.57Z" fill="#393d4f"/><path d="M45.57,74s0,0,0,0h3.25A.16.16,0,0,1,49,74a.15.15,0,0,1,0,.1v1.16a.15.15,0,0,1,0,.1.16.16,0,0,1-.11.05h-5.4a.14.14,0,0,1-.1-.05.12.12,0,0,1,0-.1v-1.1A.24.24,0,0,1,43.4,74c.39-.39.79-.8,1.2-1.26l.77-.84c.22-.27.45-.52.68-.76a3.51,3.51,0,0,0,1.1-1.8.89.89,0,0,0-.3-.69,1.14,1.14,0,0,0-.78-.27,1.1,1.1,0,0,0-.78.27.93.93,0,0,0-.31.72v.3a.13.13,0,0,1,0,.1.12.12,0,0,1-.1,0H43.43a.14.14,0,0,1-.11,0,.18.18,0,0,1,0-.1V69.1A2.08,2.08,0,0,1,43.69,68a2.38,2.38,0,0,1,1-.77,3.59,3.59,0,0,1,1.39-.26,3.29,3.29,0,0,1,1.48.32,2.39,2.39,0,0,1,1,.86,2.18,2.18,0,0,1,.34,1.2,2.36,2.36,0,0,1-.25,1,5.77,5.77,0,0,1-.76,1.14,11.19,11.19,0,0,1-.8.92c-.29.31-.72.75-1.28,1.32l-.18.18A.06.06,0,0,0,45.57,74Z" fill="#393d4f"/><path d="M31.28,94.24A2.3,2.3,0,0,1,31.63,98a3.42,3.42,0,0,1-2.08.59h-3.1a.15.15,0,0,1-.11,0,.18.18,0,0,1,0-.1V90.3a.14.14,0,0,1,.15-.15h3c1.89,0,2.84.77,2.84,2.31a1.77,1.77,0,0,1-1,1.71C31.23,94.2,31.23,94.22,31.28,94.24ZM28,91.66v1.88a.05.05,0,0,0,.06.06h1.41a1.28,1.28,0,0,0,.87-.27.88.88,0,0,0,.32-.72.93.93,0,0,0-.32-.74,1.28,1.28,0,0,0-.87-.27H28.05A.05.05,0,0,0,28,91.66Zm2.43,5.15a1,1,0,0,0,.31-.78,1,1,0,0,0-.31-.77,1.26,1.26,0,0,0-.88-.28H28.05A.05.05,0,0,0,28,95v2a.05.05,0,0,0,.06.06h1.5A1.3,1.3,0,0,0,30.42,96.81Z" fill="#393d4f"/><path d="M33.87,91.42a.95.95,0,0,1,.68-1.63.91.91,0,0,1,.68.27.89.89,0,0,1,.26.68.93.93,0,0,1-.27.68,1,1,0,0,1-1.35,0Zm-.15,7.09a.18.18,0,0,1,0-.1V92.52a.14.14,0,0,1,.15-.15h1.4a.18.18,0,0,1,.1,0,.15.15,0,0,1,0,.11v5.89a.14.14,0,0,1-.14.14h-1.4A.15.15,0,0,1,33.72,98.51Z" fill="#393d4f"/><path d="M40.19,93.7a.13.13,0,0,1-.1,0H38.94a.05.05,0,0,0-.06.06v2.54a.89.89,0,0,0,.16.59.64.64,0,0,0,.52.19H40a.14.14,0,0,1,.1,0,.12.12,0,0,1,0,.1v1.14a.14.14,0,0,1-.14.15l-.72,0a2.7,2.7,0,0,1-1.49-.33,1.39,1.39,0,0,1-.5-1.24V93.8a.05.05,0,0,0-.06-.06H36.5a.14.14,0,0,1-.14-.14V92.53a.13.13,0,0,1,0-.1.14.14,0,0,1,.1-.05h.69a.05.05,0,0,0,.06-.06V90.9a.15.15,0,0,1,0-.11.18.18,0,0,1,.1,0h1.34a.14.14,0,0,1,.15.15v1.42a.05.05,0,0,0,.06.06h1.15a.14.14,0,0,1,.1.05.13.13,0,0,1,0,.1V93.6A.13.13,0,0,1,40.19,93.7Z" fill="#393d4f"/><path d="M49,95.82a3.36,3.36,0,0,1-.21,1.2,2.39,2.39,0,0,1-1,1.2,3,3,0,0,1-1.6.43,2.78,2.78,0,0,1-1.6-.46,2.5,2.5,0,0,1-1-1.23,3.35,3.35,0,0,1-.19-1c0-.1,0-.15.14-.15H45c.09,0,.14,0,.14.15a2.51,2.51,0,0,0,.13.59.92.92,0,0,0,.36.48.93.93,0,0,0,.58.18.92.92,0,0,0,.92-.59,2,2,0,0,0,.17-.84,2.08,2.08,0,0,0-.18-.93,1,1,0,0,0-.92-.56.63.63,0,0,0-.28.08,2.68,2.68,0,0,0-.35.22.18.18,0,0,1-.09,0,.12.12,0,0,1-.11-.08l-.71-1a.13.13,0,0,1,0-.09.19.19,0,0,1,0-.12l1.91-1.66a.06.06,0,0,0,0-.05s0,0,0,0H43.74a.12.12,0,0,1-.1,0,.14.14,0,0,1,0-.1V90.3a.16.16,0,0,1,0-.11.15.15,0,0,1,.1,0h5a.15.15,0,0,1,.1,0,.16.16,0,0,1,0,.11v1.32a.26.26,0,0,1-.09.18l-1.57,1.44a0,0,0,0,0,0,0s0,0,.06,0a2,2,0,0,1,1.48,1.23A3.21,3.21,0,0,1,49,95.82Z" fill="#393d4f"/><path d="M30.5,117.58a2,2,0,0,1,1.14,2,2.06,2.06,0,0,1-.79,1.76,3.35,3.35,0,0,1-2.08.59h-3.1a.15.15,0,0,1-.11,0,.18.18,0,0,1,0-.1v-8.11a.15.15,0,0,1,0-.1.16.16,0,0,1,.11,0h3c1.89,0,2.84.77,2.84,2.31a1.77,1.77,0,0,1-1,1.71C30.45,117.53,30.45,117.55,30.5,117.58ZM27.21,115v1.87a.05.05,0,0,0,.06.06h1.41a1.28,1.28,0,0,0,.87-.27.88.88,0,0,0,.32-.72.91.91,0,0,0-.32-.73,1.28,1.28,0,0,0-.87-.27H27.27A.05.05,0,0,0,27.21,115Zm2.43,5.14a1.12,1.12,0,0,0,0-1.55,1.26,1.26,0,0,0-.88-.28H27.27a.05.05,0,0,0-.06.06v2a.05.05,0,0,0,.06.06h1.5A1.25,1.25,0,0,0,29.64,120.14Z" fill="#393d4f"/><path d="M33.09,114.75a.95.95,0,0,1,.68-1.63.91.91,0,0,1,.68.27.89.89,0,0,1,.26.68.93.93,0,0,1-.27.68,1,1,0,0,1-1.35,0Zm-.15,7.09a.18.18,0,0,1,0-.1v-5.89a.15.15,0,0,1,0-.1.16.16,0,0,1,.11,0h1.4a.14.14,0,0,1,.1,0,.12.12,0,0,1,0,.1v5.89a.14.14,0,0,1-.14.14h-1.4A.15.15,0,0,1,32.94,121.84Z" fill="#393d4f"/><path d="M39.41,117a.13.13,0,0,1-.1,0H38.16a.05.05,0,0,0-.06.06v2.55a.86.86,0,0,0,.16.58.64.64,0,0,0,.52.2h.4a.14.14,0,0,1,.14.14v1.14a.15.15,0,0,1-.14.16l-.72,0a2.7,2.7,0,0,1-1.49-.33,1.38,1.38,0,0,1-.5-1.24v-3.22a.05.05,0,0,0-.06-.06h-.69a.14.14,0,0,1-.14-.14v-1.07a.14.14,0,0,1,.14-.14h.69a.05.05,0,0,0,.06-.06v-1.43a.12.12,0,0,1,0-.1.14.14,0,0,1,.1,0H38a.16.16,0,0,1,.11,0,.15.15,0,0,1,0,.1v1.43a.05.05,0,0,0,.06.06h1.15a.14.14,0,0,1,.14.14v1.07A.13.13,0,0,1,39.41,117Z" fill="#393d4f"/><path d="M48.9,118.27a.12.12,0,0,1,0,.1v1.21a.13.13,0,0,1,0,.1.12.12,0,0,1-.1,0h-.51a.05.05,0,0,0-.06.06v2a.14.14,0,0,1,0,.1.13.13,0,0,1-.1,0h-1.4a.12.12,0,0,1-.1,0,.14.14,0,0,1,0-.1v-2a.05.05,0,0,0-.06-.06H42.79a.12.12,0,0,1-.1,0,.13.13,0,0,1,0-.1v-1a.67.67,0,0,1,0-.18l2.16-4.85a.18.18,0,0,1,.17-.11h1.5a.12.12,0,0,1,.11,0,.12.12,0,0,1,0,.12l-2,4.5v0s0,0,0,0h1.82a.05.05,0,0,0,.06-.06v-1.48a.16.16,0,0,1,0-.11.15.15,0,0,1,.1,0h1.4a.18.18,0,0,1,.1,0,.16.16,0,0,1,0,.11v1.48a.05.05,0,0,0,.06.06h.51A.12.12,0,0,1,48.9,118.27Z" fill="#393d4f"/><path d="M31.29,140.7a2,2,0,0,1,1.14,2,2.07,2.07,0,0,1-.79,1.76,3.41,3.41,0,0,1-2.07.59H26.46a.12.12,0,0,1-.1,0,.14.14,0,0,1-.05-.1v-8.12a.14.14,0,0,1,.05-.1.12.12,0,0,1,.1,0h3c1.9,0,2.84.77,2.84,2.3a1.78,1.78,0,0,1-1,1.72S31.25,140.68,31.29,140.7ZM28,138.12V140a.05.05,0,0,0,.06.06h1.4a1.3,1.3,0,0,0,.88-.26.93.93,0,0,0,.31-.72,1,1,0,0,0-.31-.74,1.3,1.3,0,0,0-.88-.27h-1.4A.05.05,0,0,0,28,138.12Zm2.42,5.14a1.11,1.11,0,0,0,0-1.54,1.26,1.26,0,0,0-.88-.29H28.07a.05.05,0,0,0-.06.06v2a.05.05,0,0,0,.06.06h1.5A1.24,1.24,0,0,0,30.43,143.26Z" fill="#393d4f"/><path d="M33.88,137.88a.93.93,0,0,1-.27-.68.89.89,0,0,1,1-.95,1,1,0,1,1-.68,1.63ZM33.74,145a.14.14,0,0,1-.05-.1V139a.14.14,0,0,1,.05-.1.12.12,0,0,1,.1,0h1.4a.12.12,0,0,1,.1,0,.14.14,0,0,1,0,.1v5.9a.14.14,0,0,1,0,.1.12.12,0,0,1-.1,0h-1.4A.12.12,0,0,1,33.74,145Z" fill="#393d4f"/><path d="M40.2,140.16a.12.12,0,0,1-.1,0H39a.05.05,0,0,0-.06.06v2.54a.89.89,0,0,0,.16.59.64.64,0,0,0,.52.19H40a.18.18,0,0,1,.1,0,.15.15,0,0,1,0,.11v1.14A.13.13,0,0,1,40,145l-.72,0a2.72,2.72,0,0,1-1.49-.33,1.43,1.43,0,0,1-.5-1.25v-3.21a.05.05,0,0,0-.06-.06h-.69a.13.13,0,0,1-.1,0,.15.15,0,0,1,0-.11V139a.15.15,0,0,1,0-.11.18.18,0,0,1,.1,0h.69a.05.05,0,0,0,.06-.06v-1.43a.14.14,0,0,1,.14-.14h1.35a.14.14,0,0,1,.14.14v1.43a.05.05,0,0,0,.06.06H40.1a.15.15,0,0,1,.1,0,.16.16,0,0,1,0,.11v1.06A.16.16,0,0,1,40.2,140.16Z" fill="#393d4f"/><path d="M49.11,142.32a3,3,0,0,1-.19,1.11,2.36,2.36,0,0,1-1,1.21,3.2,3.2,0,0,1-3.24,0,2.44,2.44,0,0,1-1-1.2,3.57,3.57,0,0,1-.18-.66v0c0-.09,0-.13.14-.13h1.45a.15.15,0,0,1,.16.13.34.34,0,0,0,0,.12l0,.08a1,1,0,0,0,.93.65,1,1,0,0,0,.58-.18,1.07,1.07,0,0,0,.38-.5,1.57,1.57,0,0,0,.12-.63,1.71,1.71,0,0,0-.11-.62.81.81,0,0,0-.34-.48,1,1,0,0,0-.59-.17,1.22,1.22,0,0,0-.62.16.77.77,0,0,0-.38.4.16.16,0,0,1-.16.12H43.71a.13.13,0,0,1-.1,0,.12.12,0,0,1,0-.1v-4.84a.14.14,0,0,1,.14-.14h5a.14.14,0,0,1,.14.14v1.17a.14.14,0,0,1-.14.14H45.32a.05.05,0,0,0-.06.06v1.78s0,.07.07,0a2.28,2.28,0,0,1,1.25-.34A2.59,2.59,0,0,1,48,140a2.31,2.31,0,0,1,.89,1.17A3.92,3.92,0,0,1,49.11,142.32Z" fill="#393d4f"/><path d="M31.32,163.42a2,2,0,0,1,1.14,2,2.08,2.08,0,0,1-.79,1.76,3.35,3.35,0,0,1-2.08.59H26.48a.14.14,0,0,1-.14-.14v-8.11a.12.12,0,0,1,0-.1.14.14,0,0,1,.1-.05h3q2.85,0,2.85,2.31a1.77,1.77,0,0,1-1,1.71C31.27,163.37,31.27,163.39,31.32,163.42ZM28,160.84v1.87a.05.05,0,0,0,.06.06h1.4a1.3,1.3,0,0,0,.88-.27.87.87,0,0,0,.31-.72.9.9,0,0,0-.31-.73,1.3,1.3,0,0,0-.88-.27h-1.4A.05.05,0,0,0,28,160.84ZM30.45,166a1.1,1.1,0,0,0,0-1.55,1.23,1.23,0,0,0-.87-.28H28.09a.05.05,0,0,0-.06.06v2a.05.05,0,0,0,.06.06h1.5A1.2,1.2,0,0,0,30.45,166Z" fill="#393d4f"/><path d="M33.9,160.59a.93.93,0,0,1-.27-.68.92.92,0,0,1,.95-.95,1,1,0,1,1-.68,1.63Zm-.14,7.09a.13.13,0,0,1,0-.1v-5.89a.12.12,0,0,1,0-.1.14.14,0,0,1,.1-.05h1.41a.14.14,0,0,1,.1.05.12.12,0,0,1,0,.1v5.89a.14.14,0,0,1-.14.14H33.86A.13.13,0,0,1,33.76,167.68Z" fill="#393d4f"/><path d="M40.23,162.87a.13.13,0,0,1-.1,0H39a.05.05,0,0,0-.06.06v2.55a.85.85,0,0,0,.17.58.63.63,0,0,0,.52.2H40a.15.15,0,0,1,.11,0,.18.18,0,0,1,0,.1v1.14c0,.09,0,.14-.15.16l-.72,0a2.66,2.66,0,0,1-1.48-.33,1.41,1.41,0,0,1-.51-1.24V163a.05.05,0,0,0-.06-.06h-.68a.12.12,0,0,1-.1,0,.14.14,0,0,1,0-.1V161.7a.14.14,0,0,1,0-.1.12.12,0,0,1,.1,0h.68a.05.05,0,0,0,.06-.06v-1.43a.15.15,0,0,1,0-.1.16.16,0,0,1,.11-.05h1.34a.14.14,0,0,1,.1.05.12.12,0,0,1,0,.1v1.43a.05.05,0,0,0,.06.06h1.16a.14.14,0,0,1,.14.14v1.07A.13.13,0,0,1,40.23,162.87Z" fill="#393d4f"/><path d="M49.11,165a3.23,3.23,0,0,1-.22,1.24,2.43,2.43,0,0,1-1,1.12,2.93,2.93,0,0,1-1.56.41,2.87,2.87,0,0,1-1.59-.43,2.4,2.4,0,0,1-1-1.18,3,3,0,0,1-.22-1.18v-3.61a1.94,1.94,0,0,1,.34-1.14,2.17,2.17,0,0,1,1-.77,3.4,3.4,0,0,1,1.4-.27,3.33,3.33,0,0,1,1.38.27,2.18,2.18,0,0,1,.93.75,2,2,0,0,1,.33,1.13v.33a.12.12,0,0,1,0,.1.14.14,0,0,1-.1.05H47.36a.14.14,0,0,1-.1-.05.12.12,0,0,1,0-.1v-.11a.9.9,0,0,0-.27-.66.93.93,0,0,0-.68-.26,1,1,0,0,0-.73.27.94.94,0,0,0-.28.69v1.13s0,0,0,0a0,0,0,0,0,0,0,2,2,0,0,1,1.31-.42,2.53,2.53,0,0,1,1.29.33,2.32,2.32,0,0,1,.9,1A3,3,0,0,1,49.11,165Zm-1.69,0a1.47,1.47,0,0,0-.19-.79,1,1,0,0,0-.88-.48.92.92,0,0,0-.9.49,1.61,1.61,0,0,0-.18.8,1.65,1.65,0,0,0,.16.74,1,1,0,0,0,1.81,0A1.5,1.5,0,0,0,47.42,165.06Z" fill="#393d4f"/><path d="M31.81,186.64a2.3,2.3,0,0,1,.35,3.72,3.42,3.42,0,0,1-2.08.59H27a.14.14,0,0,1-.14-.14V182.7a.15.15,0,0,1,0-.11.18.18,0,0,1,.1,0h3c1.89,0,2.84.77,2.84,2.31a1.77,1.77,0,0,1-1,1.71S31.76,186.62,31.81,186.64Zm-3.29-2.58v1.88a.05.05,0,0,0,.06.06H30a1.29,1.29,0,0,0,.87-.27.87.87,0,0,0,.31-.72.92.92,0,0,0-.31-.74A1.29,1.29,0,0,0,30,184H28.58A.05.05,0,0,0,28.52,184.06ZM31,189.21a1,1,0,0,0,.31-.78,1,1,0,0,0-.31-.77,1.26,1.26,0,0,0-.88-.28H28.58a.05.05,0,0,0-.06.06v2a.05.05,0,0,0,.06.06h1.5A1.3,1.3,0,0,0,31,189.21Z" fill="#393d4f"/><path d="M34.4,183.82a.93.93,0,0,1-.27-.68.89.89,0,0,1,.26-.68.91.91,0,0,1,.68-.27,1,1,0,0,1,.68,1.63,1,1,0,0,1-1.35,0Zm-.15,7.09a.13.13,0,0,1,0-.1v-5.89a.15.15,0,0,1,0-.11.18.18,0,0,1,.1,0h1.41a.18.18,0,0,1,.1,0,.15.15,0,0,1,0,.11v5.89a.14.14,0,0,1-.14.14H34.35A.13.13,0,0,1,34.25,190.91Z" fill="#393d4f"/><path d="M40.72,186.1a.13.13,0,0,1-.1,0H39.47a.05.05,0,0,0-.06.06v2.54a.89.89,0,0,0,.16.59.64.64,0,0,0,.52.19h.4a.14.14,0,0,1,.1,0,.12.12,0,0,1,0,.1v1.14a.14.14,0,0,1-.14.15l-.72,0a2.7,2.7,0,0,1-1.49-.33,1.42,1.42,0,0,1-.51-1.24V186.2a.05.05,0,0,0-.06-.06H37a.14.14,0,0,1-.14-.14v-1.07a.12.12,0,0,1,0-.1.14.14,0,0,1,.1-.05h.68a.05.05,0,0,0,.06-.06V183.3a.16.16,0,0,1,0-.11.15.15,0,0,1,.1,0h1.34a.15.15,0,0,1,.1,0,.16.16,0,0,1,0,.11v1.42a.05.05,0,0,0,.06.06h1.15a.14.14,0,0,1,.1.05.12.12,0,0,1,0,.1V186A.13.13,0,0,1,40.72,186.1Z" fill="#393d4f"/><path d="M44.93,190.78l2.6-6.7c0-.05,0-.08-.05-.08H45.24a.05.05,0,0,0-.06.06v.56a.18.18,0,0,1,0,.1.15.15,0,0,1-.11,0H43.94a.14.14,0,0,1-.14-.14V182.7a.15.15,0,0,1,0-.11.18.18,0,0,1,.1,0H49.2a.18.18,0,0,1,.1,0,.15.15,0,0,1,0,.11v1.21a.67.67,0,0,1,0,.18l-2.6,6.75a.14.14,0,0,1-.16.11h-1.5C44.93,191,44.88,190.9,44.93,190.78Z" fill="#393d4f"/><rect x="427.1" y="0.75" width="63.4" height="226.92" rx="3.63" fill="#f8a68c"/><rect x="427.1" y="0.75" width="63.4" height="226.92" rx="3.63" fill="none" stroke="#393d4f" stroke-miterlimit="8" stroke-width="1.5"/><path d="M436.05,12.4a.12.12,0,0,1,0-.1V4.19a.14.14,0,0,1,.14-.14h3a3.71,3.71,0,0,1,1.58.31,2.51,2.51,0,0,1,1,.9,2.38,2.38,0,0,1,.37,1.33V9.9a2.35,2.35,0,0,1-.37,1.33,2.44,2.44,0,0,1-1,.9,3.71,3.71,0,0,1-1.58.32h-3A.14.14,0,0,1,436.05,12.4ZM437.76,11h1.45a1.16,1.16,0,0,0,.9-.37,1.45,1.45,0,0,0,.35-1V6.87a1.41,1.41,0,0,0-.34-1,1.18,1.18,0,0,0-.92-.37h-1.44a.05.05,0,0,0-.06.06v5.37A.05.05,0,0,0,437.76,11Z" fill="#393d4f"/><path d="M447.17,6.45a2.24,2.24,0,0,1,.95.74,1.72,1.72,0,0,1,.35,1V12.3a.18.18,0,0,1-.15.15h-1.4a.18.18,0,0,1-.15-.15v-.39s0,0,0-.05,0,0-.05,0a1.89,1.89,0,0,1-1.62.66,2.38,2.38,0,0,1-1.51-.45,1.65,1.65,0,0,1-.58-1.35,1.73,1.73,0,0,1,.65-1.43,2.93,2.93,0,0,1,1.85-.51h1.22a.05.05,0,0,0,.06-.06V8.47a.78.78,0,0,0-.24-.61,1,1,0,0,0-.72-.23,1.25,1.25,0,0,0-.61.14.58.58,0,0,0-.32.37c0,.09-.08.13-.16.12l-1.45-.19c-.1,0-.14-.06-.13-.11a1.54,1.54,0,0,1,.4-.91,2.28,2.28,0,0,1,.94-.64,3.54,3.54,0,0,1,1.3-.23A3.41,3.41,0,0,1,447.17,6.45ZM446.41,11a.86.86,0,0,0,.36-.71V9.87a.05.05,0,0,0-.06-.06h-.86a1.51,1.51,0,0,0-.85.2.67.67,0,0,0-.3.58.62.62,0,0,0,.23.51.94.94,0,0,0,.61.18A1.41,1.41,0,0,0,446.41,11Z" fill="#393d4f"/><path d="M453.15,7.59a.13.13,0,0,1-.1,0H451.9a.05.05,0,0,0-.06.06v2.55a.9.9,0,0,0,.16.59.67.67,0,0,0,.52.19h.4a.14.14,0,0,1,.14.14V12.3a.15.15,0,0,1-.14.16l-.72,0a2.7,2.7,0,0,1-1.49-.33,1.38,1.38,0,0,1-.5-1.24V7.69a.05.05,0,0,0-.06-.06h-.69a.14.14,0,0,1-.14-.14V6.42a.14.14,0,0,1,.14-.14h.69a.05.05,0,0,0,.06-.06V4.79a.14.14,0,0,1,.14-.14h1.34a.15.15,0,0,1,.11,0,.18.18,0,0,1,0,.1V6.22a.05.05,0,0,0,.06.06h1.15a.14.14,0,0,1,.14.14V7.49A.13.13,0,0,1,453.15,7.59Z" fill="#393d4f"/><path d="M458.07,6.45a2.37,2.37,0,0,1,.95.74,1.71,1.71,0,0,1,.34,1V12.3a.12.12,0,0,1,0,.1.14.14,0,0,1-.1,0h-1.41a.14.14,0,0,1-.1,0,.12.12,0,0,1,0-.1v-.39a.06.06,0,0,0,0-.05,0,0,0,0,0,0,0,1.92,1.92,0,0,1-1.62.66,2.36,2.36,0,0,1-1.51-.45,1.62,1.62,0,0,1-.58-1.35,1.73,1.73,0,0,1,.65-1.43,2.93,2.93,0,0,1,1.85-.51h1.22a.05.05,0,0,0,.06-.06V8.47a.78.78,0,0,0-.24-.61,1,1,0,0,0-.72-.23,1.29,1.29,0,0,0-.62.14.61.61,0,0,0-.32.37q0,.13-.15.12l-1.45-.19c-.1,0-.14-.06-.14-.11a1.61,1.61,0,0,1,.41-.91,2.18,2.18,0,0,1,.93-.64,3.58,3.58,0,0,1,1.3-.23A3.46,3.46,0,0,1,458.07,6.45ZM457.31,11a.86.86,0,0,0,.36-.71V9.87a.05.05,0,0,0-.06-.06h-.86a1.49,1.49,0,0,0-.85.2.67.67,0,0,0-.31.58.65.65,0,0,0,.23.51,1,1,0,0,0,.61.18A1.42,1.42,0,0,0,457.31,11Z" fill="#393d4f"/><path d="M468,8.14a2,2,0,0,1,1.14,1.95,2.07,2.07,0,0,1-.79,1.76,3.36,3.36,0,0,1-2.08.6H463.2a.14.14,0,0,1-.1,0,.12.12,0,0,1,0-.1V4.19a.14.14,0,0,1,.14-.14h3c1.9,0,2.85.76,2.85,2.3a1.79,1.79,0,0,1-1,1.72C468,8.09,468,8.11,468,8.14Zm-3.29-2.58V7.43a.05.05,0,0,0,.06.06h1.4a1.36,1.36,0,0,0,.88-.26.9.9,0,0,0,.31-.72.91.91,0,0,0-.31-.74,1.3,1.3,0,0,0-.88-.27h-1.4A.05.05,0,0,0,464.75,5.56Zm2.42,5.14a1.1,1.1,0,0,0,0-1.55,1.23,1.23,0,0,0-.87-.28h-1.49a.05.05,0,0,0-.06.06v2a.05.05,0,0,0,.06.06h1.5A1.2,1.2,0,0,0,467.17,10.7Z" fill="#393d4f"/><path d="M474,6.32a.13.13,0,0,1,.1,0h1.41a.14.14,0,0,1,.14.14V12.3a.12.12,0,0,1,0,.1.14.14,0,0,1-.1,0h-1.41a.14.14,0,0,1-.1,0,.12.12,0,0,1,0-.1v-.41a.05.05,0,0,0,0,0,.05.05,0,0,0-.05,0,1.74,1.74,0,0,1-1.49.65,2.09,2.09,0,0,1-1.5-.55,2,2,0,0,1-.59-1.55v-4a.18.18,0,0,1,0-.1.13.13,0,0,1,.1,0h1.4a.14.14,0,0,1,.14.14V10a1.17,1.17,0,0,0,.26.78.89.89,0,0,0,.71.3.94.94,0,0,0,.68-.25,1.06,1.06,0,0,0,.32-.64V6.42A.13.13,0,0,1,474,6.32Z" fill="#393d4f"/><path d="M478,12.3a2.16,2.16,0,0,1-.92-.63,1.45,1.45,0,0,1-.33-.93v-.12a.14.14,0,0,1,.14-.14h1.33a.12.12,0,0,1,.1,0,.14.14,0,0,1,.05.1h0a.51.51,0,0,0,.29.45,1.31,1.31,0,0,0,.74.19,1.2,1.2,0,0,0,.66-.16.46.46,0,0,0,.25-.4.34.34,0,0,0-.22-.33,3.67,3.67,0,0,0-.71-.23,5.93,5.93,0,0,1-.88-.27,3.94,3.94,0,0,1-1.23-.65,1.37,1.37,0,0,1-.45-1.1,1.66,1.66,0,0,1,.69-1.41,3,3,0,0,1,1.83-.53,3.44,3.44,0,0,1,1.34.25,2,2,0,0,1,.9.69,1.7,1.7,0,0,1,.31,1,.14.14,0,0,1-.14.14h-1.29a.13.13,0,0,1-.1,0,.18.18,0,0,1,0-.1.53.53,0,0,0-.27-.45,1.27,1.27,0,0,0-.71-.18,1.25,1.25,0,0,0-.65.15.43.43,0,0,0-.25.39.38.38,0,0,0,.24.36,4.44,4.44,0,0,0,.82.26l.31.07.36.11a3.89,3.89,0,0,1,1.34.64,1.4,1.4,0,0,1,.49,1.16,1.59,1.59,0,0,1-.7,1.38,3.23,3.23,0,0,1-1.89.5A4,4,0,0,1,478,12.3Z" fill="#393d4f"/><path d="M457.15,25.33a2,2,0,0,1,1.14,2,2.1,2.1,0,0,1-.79,1.76,3.42,3.42,0,0,1-2.08.59h-3.11a.14.14,0,0,1-.14-.14V21.38a.14.14,0,0,1,.14-.14h3c1.9,0,2.85.77,2.85,2.3a1.78,1.78,0,0,1-1,1.72S457.1,25.31,457.15,25.33Zm-3.29-2.58v1.87a.05.05,0,0,0,.06.06h1.4a1.3,1.3,0,0,0,.88-.26.9.9,0,0,0,.31-.72.92.92,0,0,0-.31-.74,1.3,1.3,0,0,0-.88-.27h-1.4A.05.05,0,0,0,453.86,22.75Zm2.42,5.14a1.09,1.09,0,0,0,0-1.54,1.23,1.23,0,0,0-.87-.29h-1.49a.05.05,0,0,0-.06.06v2a.05.05,0,0,0,.06.06h1.5A1.21,1.21,0,0,0,456.28,27.89Z" fill="#393d4f"/><path d="M459.73,22.51a.95.95,0,0,1,.68-1.63.89.89,0,0,1,.95.95,1,1,0,0,1-1.63.68Zm-.14,7.09a.13.13,0,0,1,0-.1V23.6a.14.14,0,0,1,.14-.14h1.41a.14.14,0,0,1,.14.14v5.9a.14.14,0,0,1-.14.14h-1.41A.13.13,0,0,1,459.59,29.6Z" fill="#393d4f"/><path d="M466.06,24.79a.18.18,0,0,1-.1,0H464.8a.05.05,0,0,0-.06.06v2.54a.88.88,0,0,0,.17.59.62.62,0,0,0,.52.19h.39a.14.14,0,0,1,.15.15V29.5a.15.15,0,0,1-.15.15l-.72,0a2.66,2.66,0,0,1-1.48-.33,1.43,1.43,0,0,1-.51-1.25V24.89a.05.05,0,0,0-.06-.06h-.68a.15.15,0,0,1-.1,0,.16.16,0,0,1,0-.11V23.62a.16.16,0,0,1,0-.11.15.15,0,0,1,.1,0h.68a.05.05,0,0,0,.06-.06V22a.18.18,0,0,1,0-.1.15.15,0,0,1,.11,0h1.34a.14.14,0,0,1,.14.14v1.43a.05.05,0,0,0,.06.06H466a.18.18,0,0,1,.1,0,.15.15,0,0,1,0,.11v1.06A.15.15,0,0,1,466.06,24.79Z" fill="#393d4f"/><path d="M470.22,29a2.62,2.62,0,0,1-.77-2V23.86a2.56,2.56,0,0,1,.77-2,2.87,2.87,0,0,1,2.08-.74,2.94,2.94,0,0,1,2.1.74,2.59,2.59,0,0,1,.77,2V27a2.66,2.66,0,0,1-.77,2,2.9,2.9,0,0,1-2.1.74A2.83,2.83,0,0,1,470.22,29Zm2.94-1a1.22,1.22,0,0,0,.32-.88v-3.3a1.22,1.22,0,0,0-.32-.88,1.14,1.14,0,0,0-.86-.33,1.11,1.11,0,0,0-.84.33,1.22,1.22,0,0,0-.32.88v3.3a1.22,1.22,0,0,0,.32.88,1.11,1.11,0,0,0,.84.33A1.14,1.14,0,0,0,473.16,28Z" fill="#393d4f"/><path d="M457.15,47.89a2,2,0,0,1,1.14,2,2.06,2.06,0,0,1-.79,1.75,3.36,3.36,0,0,1-2.08.6h-3.11a.18.18,0,0,1-.1,0,.15.15,0,0,1,0-.11V43.94a.14.14,0,0,1,.14-.14h3c1.9,0,2.85.77,2.85,2.3a1.79,1.79,0,0,1-1,1.72S457.1,47.87,457.15,47.89Zm-3.29-2.58v1.87a.05.05,0,0,0,.06.06h1.4a1.36,1.36,0,0,0,.88-.26.9.9,0,0,0,.31-.72.92.92,0,0,0-.31-.74,1.3,1.3,0,0,0-.88-.27h-1.4A.05.05,0,0,0,453.86,45.31Zm2.42,5.14a1,1,0,0,0,.32-.77,1,1,0,0,0-.32-.78,1.28,1.28,0,0,0-.87-.28h-1.49a.05.05,0,0,0-.06.06v2a.05.05,0,0,0,.06.06h1.5A1.2,1.2,0,0,0,456.28,50.45Z" fill="#393d4f"/><path d="M459.73,45.06a.9.9,0,0,1-.27-.67.91.91,0,0,1,1-1,.89.89,0,0,1,.95,1,.9.9,0,0,1-.27.67,1,1,0,0,1-1.36,0Zm-.14,7.1a.15.15,0,0,1,0-.11V46.16a.14.14,0,0,1,.14-.14h1.41a.14.14,0,0,1,.14.14v5.89a.15.15,0,0,1,0,.11.18.18,0,0,1-.1,0h-1.41A.18.18,0,0,1,459.59,52.16Z" fill="#393d4f"/><path d="M466.06,47.34a.14.14,0,0,1-.1,0H464.8a.05.05,0,0,0-.06.06V50a.9.9,0,0,0,.17.59.62.62,0,0,0,.52.19h.39a.15.15,0,0,1,.11,0,.18.18,0,0,1,0,.1v1.14c0,.09-.05.14-.15.16-.33,0-.57,0-.72,0a2.66,2.66,0,0,1-1.48-.33,1.41,1.41,0,0,1-.51-1.24V47.45a.05.05,0,0,0-.06-.06h-.68a.18.18,0,0,1-.15-.15V46.17a.14.14,0,0,1,0-.1.12.12,0,0,1,.1,0h.68a.05.05,0,0,0,.06-.06V44.54a.18.18,0,0,1,0-.1.15.15,0,0,1,.11,0h1.34a.14.14,0,0,1,.14.14V46a.05.05,0,0,0,.06.06H466a.14.14,0,0,1,.14.14v1.07A.12.12,0,0,1,466.06,47.34Z" fill="#393d4f"/><path d="M470.88,43.8h1.45a.14.14,0,0,1,.14.14v8.11a.15.15,0,0,1,0,.11.18.18,0,0,1-.1,0h-1.41a.18.18,0,0,1-.1,0,.15.15,0,0,1,0-.11V45.48s0,0,0,0,0,0-.05,0l-1.19.32h0c-.07,0-.11,0-.11-.13l0-1a.16.16,0,0,1,.11-.17l1.26-.59A.42.42,0,0,1,470.88,43.8Z" fill="#393d4f"/><path d="M457.15,71.12a2,2,0,0,1,1.14,1.95,2.07,2.07,0,0,1-.79,1.76,3.36,3.36,0,0,1-2.08.6h-3.11a.14.14,0,0,1-.1-.05.12.12,0,0,1,0-.1V67.17a.14.14,0,0,1,.14-.14h3c1.9,0,2.85.76,2.85,2.3a1.79,1.79,0,0,1-1,1.72S457.1,71.09,457.15,71.12Zm-3.29-2.58v1.87a.05.05,0,0,0,.06.06h1.4a1.36,1.36,0,0,0,.88-.26.9.9,0,0,0,.31-.72.91.91,0,0,0-.31-.74,1.3,1.3,0,0,0-.88-.27h-1.4A.05.05,0,0,0,453.86,68.54Zm2.42,5.14a1.1,1.1,0,0,0,0-1.55,1.23,1.23,0,0,0-.87-.28h-1.49a.05.05,0,0,0-.06.06v2a.05.05,0,0,0,.06.06h1.5A1.2,1.2,0,0,0,456.28,73.68Z" fill="#393d4f"/><path d="M459.73,68.29a1,1,0,0,1,0-1.36.89.89,0,0,1,.68-.26.93.93,0,0,1,.69.26.94.94,0,0,1,.26.68.91.91,0,0,1-.27.68,1,1,0,0,1-1.36,0Zm-.14,7.09a.12.12,0,0,1,0-.1V69.39a.14.14,0,0,1,.14-.14h1.41a.14.14,0,0,1,.14.14v5.89a.12.12,0,0,1,0,.1.14.14,0,0,1-.1.05h-1.41A.14.14,0,0,1,459.59,75.38Z" fill="#393d4f"/><path d="M466.06,70.57a.13.13,0,0,1-.1,0H464.8a.05.05,0,0,0-.06.06v2.55a.9.9,0,0,0,.17.59.62.62,0,0,0,.52.19h.39a.15.15,0,0,1,.11,0,.18.18,0,0,1,0,.1v1.14c0,.09-.05.14-.15.16l-.72,0a2.66,2.66,0,0,1-1.48-.33,1.41,1.41,0,0,1-.51-1.24V70.67a.05.05,0,0,0-.06-.06h-.68a.12.12,0,0,1-.1,0,.14.14,0,0,1,0-.1V69.4a.14.14,0,0,1,0-.1.12.12,0,0,1,.1,0h.68a.05.05,0,0,0,.06-.06V67.77a.18.18,0,0,1,0-.1.15.15,0,0,1,.11,0h1.34a.14.14,0,0,1,.14.14V69.2a.05.05,0,0,0,.06.06H466a.14.14,0,0,1,.14.14v1.07A.13.13,0,0,1,466.06,70.57Z" fill="#393d4f"/><path d="M471.68,74s0,0,.05,0H475a.14.14,0,0,1,.1,0,.12.12,0,0,1,0,.1v1.16a.12.12,0,0,1,0,.1.14.14,0,0,1-.1.05h-5.4a.14.14,0,0,1-.1-.05.12.12,0,0,1,0-.1v-1.1a.24.24,0,0,1,.07-.18c.39-.39.79-.8,1.2-1.26s.66-.73.77-.84c.22-.27.45-.52.68-.76a3.46,3.46,0,0,0,1.09-1.8.89.89,0,0,0-.3-.69,1.26,1.26,0,0,0-1.56,0,.92.92,0,0,0-.3.72v.3a.14.14,0,0,1-.14.14h-1.42a.14.14,0,0,1-.14-.14V69.1A2,2,0,0,1,469.8,68a2.26,2.26,0,0,1,1-.77,3.57,3.57,0,0,1,1.38-.26,3.26,3.26,0,0,1,1.48.32,2.42,2.42,0,0,1,1,.86,2.26,2.26,0,0,1,.34,1.2,2.51,2.51,0,0,1-.25,1,5.77,5.77,0,0,1-.76,1.14c-.25.31-.52.62-.8.92s-.72.75-1.29,1.32l-.18.18S471.67,73.94,471.68,74Z" fill="#393d4f"/><path d="M457.15,94.24a2,2,0,0,1,1.14,2A2.08,2.08,0,0,1,457.5,98a3.42,3.42,0,0,1-2.08.59h-3.11a.14.14,0,0,1-.14-.14V90.3a.15.15,0,0,1,0-.11.18.18,0,0,1,.1,0h3q2.85,0,2.85,2.31a1.77,1.77,0,0,1-1,1.71S457.1,94.22,457.15,94.24Zm-3.29-2.58v1.88a.05.05,0,0,0,.06.06h1.4a1.3,1.3,0,0,0,.88-.27.87.87,0,0,0,.31-.72.92.92,0,0,0-.31-.74,1.3,1.3,0,0,0-.88-.27h-1.4A.05.05,0,0,0,453.86,91.66Zm2.42,5.15a1,1,0,0,0,.32-.78,1,1,0,0,0-.32-.77,1.23,1.23,0,0,0-.87-.28h-1.49a.05.05,0,0,0-.06.06v2a.05.05,0,0,0,.06.06h1.5A1.25,1.25,0,0,0,456.28,96.81Z" fill="#393d4f"/><path d="M459.73,91.42a.93.93,0,0,1-.27-.68.92.92,0,0,1,1-.95,1,1,0,1,1-.68,1.63Zm-.14,7.09a.13.13,0,0,1,0-.1V92.52a.15.15,0,0,1,0-.11.18.18,0,0,1,.1,0h1.41a.18.18,0,0,1,.1,0,.15.15,0,0,1,0,.11v5.89a.14.14,0,0,1-.14.14h-1.41A.13.13,0,0,1,459.59,98.51Z" fill="#393d4f"/><path d="M466.06,93.7a.13.13,0,0,1-.1,0H464.8a.05.05,0,0,0-.06.06v2.54a.88.88,0,0,0,.17.59.62.62,0,0,0,.52.19h.39a.16.16,0,0,1,.11,0,.15.15,0,0,1,0,.1v1.14q0,.14-.15.15l-.72,0a2.66,2.66,0,0,1-1.48-.33,1.42,1.42,0,0,1-.51-1.24V93.8a.05.05,0,0,0-.06-.06h-.68a.12.12,0,0,1-.1,0,.14.14,0,0,1,0-.1V92.53a.14.14,0,0,1,0-.1.12.12,0,0,1,.1-.05h.68a.05.05,0,0,0,.06-.06V90.9a.14.14,0,0,1,.15-.15h1.34a.18.18,0,0,1,.1,0,.15.15,0,0,1,0,.11v1.42a.05.05,0,0,0,.06.06H466a.14.14,0,0,1,.1.05.13.13,0,0,1,0,.1V93.6A.13.13,0,0,1,466.06,93.7Z" fill="#393d4f"/><path d="M474.86,95.82a3.16,3.16,0,0,1-.22,1.2,2.38,2.38,0,0,1-1,1.2,3,3,0,0,1-1.6.43,2.82,2.82,0,0,1-1.61-.46,2.5,2.5,0,0,1-1-1.23,3.69,3.69,0,0,1-.19-1,.13.13,0,0,1,.15-.15h1.41A.13.13,0,0,1,471,96a2.09,2.09,0,0,0,.13.59,1,1,0,0,0,.35.48,1,1,0,0,0,.58.18.93.93,0,0,0,.93-.59,2,2,0,0,0,.17-.84,2.08,2.08,0,0,0-.18-.93,1,1,0,0,0-.93-.56.56.56,0,0,0-.27.08,2.15,2.15,0,0,0-.35.22.21.21,0,0,1-.1,0c-.05,0-.08,0-.11-.08l-.7-1a.14.14,0,0,1,0-.09.21.21,0,0,1,.05-.12l1.91-1.66a.17.17,0,0,0,0-.05,0,0,0,0,0-.05,0H469.6a.14.14,0,0,1-.14-.14V90.3a.15.15,0,0,1,0-.11.18.18,0,0,1,.1,0h5a.18.18,0,0,1,.1,0,.15.15,0,0,1,0,.11v1.32a.29.29,0,0,1-.08.18l-1.57,1.44s0,0,0,0,0,0,.05,0a2,2,0,0,1,1.49,1.23A3.21,3.21,0,0,1,474.86,95.82Z" fill="#393d4f"/><path d="M457.15,117.58a2,2,0,0,1,1.14,2,2.08,2.08,0,0,1-.79,1.76,3.35,3.35,0,0,1-2.08.59h-3.11a.14.14,0,0,1-.14-.14v-8.11a.12.12,0,0,1,0-.1.14.14,0,0,1,.1,0h3q2.85,0,2.85,2.31a1.77,1.77,0,0,1-1,1.71S457.1,117.55,457.15,117.58ZM453.86,115v1.87a.05.05,0,0,0,.06.06h1.4a1.3,1.3,0,0,0,.88-.27.87.87,0,0,0,.31-.72.9.9,0,0,0-.31-.73,1.3,1.3,0,0,0-.88-.27h-1.4A.05.05,0,0,0,453.86,115Zm2.42,5.14a1.1,1.1,0,0,0,0-1.55,1.23,1.23,0,0,0-.87-.28h-1.49a.05.05,0,0,0-.06.06v2a.05.05,0,0,0,.06.06h1.5A1.2,1.2,0,0,0,456.28,120.14Z" fill="#393d4f"/><path d="M459.73,114.75a.93.93,0,0,1-.27-.68.92.92,0,0,1,1-.95,1,1,0,1,1-.68,1.63Zm-.14,7.09a.13.13,0,0,1,0-.1v-5.89a.12.12,0,0,1,0-.1.14.14,0,0,1,.1,0h1.41a.14.14,0,0,1,.1,0,.12.12,0,0,1,0,.1v5.89a.14.14,0,0,1-.14.14h-1.41A.13.13,0,0,1,459.59,121.84Z" fill="#393d4f"/><path d="M466.06,117a.13.13,0,0,1-.1,0H464.8a.05.05,0,0,0-.06.06v2.55a.85.85,0,0,0,.17.58.63.63,0,0,0,.52.2h.39a.15.15,0,0,1,.11,0,.18.18,0,0,1,0,.1v1.14c0,.09-.05.14-.15.16l-.72,0a2.66,2.66,0,0,1-1.48-.33,1.41,1.41,0,0,1-.51-1.24v-3.22a.05.05,0,0,0-.06-.06h-.68a.12.12,0,0,1-.1,0,.14.14,0,0,1,0-.1v-1.07a.14.14,0,0,1,0-.1.12.12,0,0,1,.1,0h.68a.05.05,0,0,0,.06-.06v-1.43a.15.15,0,0,1,0-.1.16.16,0,0,1,.11,0h1.34a.14.14,0,0,1,.1,0,.12.12,0,0,1,0,.1v1.43a.05.05,0,0,0,.06.06H466a.14.14,0,0,1,.14.14v1.07A.13.13,0,0,1,466.06,117Z" fill="#393d4f"/><path d="M475.55,118.27a.12.12,0,0,1,0,.1v1.21a.14.14,0,0,1-.14.14h-.52a.05.05,0,0,0-.06.06v2a.14.14,0,0,1-.14.14h-1.41a.14.14,0,0,1-.14-.14v-2a.05.05,0,0,0-.06-.06h-3.68a.15.15,0,0,1-.11,0,.18.18,0,0,1,0-.1v-1a.45.45,0,0,1,0-.18l2.16-4.85a.18.18,0,0,1,.17-.11h1.5a.13.13,0,0,1,.11,0,.11.11,0,0,1,0,.12l-2,4.5a0,0,0,0,0,0,0s0,0,0,0h1.82a.05.05,0,0,0,.06-.06v-1.48a.15.15,0,0,1,0-.11.18.18,0,0,1,.1,0h1.41a.18.18,0,0,1,.1,0,.15.15,0,0,1,0,.11v1.48a.05.05,0,0,0,.06.06h.52A.14.14,0,0,1,475.55,118.27Z" fill="#393d4f"/><path d="M457.15,140.7a2,2,0,0,1,1.14,2,2.1,2.1,0,0,1-.79,1.76,3.42,3.42,0,0,1-2.08.59h-3.11a.14.14,0,0,1-.14-.14v-8.12a.14.14,0,0,1,.14-.14h3c1.9,0,2.85.77,2.85,2.3a1.78,1.78,0,0,1-1,1.72S457.1,140.68,457.15,140.7Zm-3.29-2.58V140a.05.05,0,0,0,.06.06h1.4a1.3,1.3,0,0,0,.88-.26.9.9,0,0,0,.31-.72.92.92,0,0,0-.31-.74,1.3,1.3,0,0,0-.88-.27h-1.4A.05.05,0,0,0,453.86,138.12Zm2.42,5.14a1.09,1.09,0,0,0,0-1.54,1.23,1.23,0,0,0-.87-.29h-1.49a.05.05,0,0,0-.06.06v2a.05.05,0,0,0,.06.06h1.5A1.21,1.21,0,0,0,456.28,143.26Z" fill="#393d4f"/><path d="M459.73,137.88a.95.95,0,0,1,.68-1.63.89.89,0,0,1,.95.95,1,1,0,0,1-1.63.68Zm-.14,7.09a.13.13,0,0,1,0-.1V139a.14.14,0,0,1,.14-.14h1.41a.14.14,0,0,1,.14.14v5.9a.14.14,0,0,1-.14.14h-1.41A.13.13,0,0,1,459.59,145Z" fill="#393d4f"/><path d="M466.06,140.16a.13.13,0,0,1-.1,0H464.8a.05.05,0,0,0-.06.06v2.54a.88.88,0,0,0,.17.59.62.62,0,0,0,.52.19h.39a.14.14,0,0,1,.15.15v1.14q0,.13-.15.15l-.72,0a2.66,2.66,0,0,1-1.48-.33,1.43,1.43,0,0,1-.51-1.25v-3.21a.05.05,0,0,0-.06-.06h-.68a.12.12,0,0,1-.1,0,.16.16,0,0,1,0-.11V139a.16.16,0,0,1,0-.11.15.15,0,0,1,.1,0h.68a.05.05,0,0,0,.06-.06v-1.43a.18.18,0,0,1,0-.1.15.15,0,0,1,.11,0h1.34a.14.14,0,0,1,.14.14v1.43a.05.05,0,0,0,.06.06H466a.18.18,0,0,1,.1,0,.15.15,0,0,1,0,.11v1.06A.15.15,0,0,1,466.06,140.16Z" fill="#393d4f"/><path d="M475,142.32a3.23,3.23,0,0,1-.19,1.11,2.38,2.38,0,0,1-1,1.21,3.18,3.18,0,0,1-3.23,0,2.4,2.4,0,0,1-1-1.2,3.57,3.57,0,0,1-.18-.66v0c0-.09,0-.13.15-.13H471a.14.14,0,0,1,.15.13.34.34,0,0,0,0,.12.59.59,0,0,1,0,.08,1,1,0,0,0,.36.48,1,1,0,0,0,.56.17,1,1,0,0,0,.59-.18,1,1,0,0,0,.37-.5,1.41,1.41,0,0,0,.12-.63,1.71,1.71,0,0,0-.11-.62.79.79,0,0,0-.33-.48,1.07,1.07,0,0,0-.59-.17,1.26,1.26,0,0,0-.63.16.77.77,0,0,0-.38.4.15.15,0,0,1-.16.12h-1.47a.12.12,0,0,1-.1,0,.12.12,0,0,1-.05-.1v-4.84a.14.14,0,0,1,.05-.1.12.12,0,0,1,.1,0h4.95a.15.15,0,0,1,.11,0,.18.18,0,0,1,0,.1v1.17a.18.18,0,0,1,0,.1.15.15,0,0,1-.11,0h-3.34a.05.05,0,0,0-.06.06l0,1.78s0,.07.08,0a2.24,2.24,0,0,1,1.24-.34,2.59,2.59,0,0,1,1.47.42,2.39,2.39,0,0,1,.9,1.17A3.92,3.92,0,0,1,475,142.32Z" fill="#393d4f"/><path d="M457.15,163.42a2,2,0,0,1,1.14,2,2.08,2.08,0,0,1-.79,1.76,3.35,3.35,0,0,1-2.08.59h-3.11a.14.14,0,0,1-.14-.14v-8.11a.12.12,0,0,1,0-.1.14.14,0,0,1,.1-.05h3q2.85,0,2.85,2.31a1.77,1.77,0,0,1-1,1.71S457.1,163.39,457.15,163.42Zm-3.29-2.58v1.87a.05.05,0,0,0,.06.06h1.4a1.3,1.3,0,0,0,.88-.27.87.87,0,0,0,.31-.72.9.9,0,0,0-.31-.73,1.3,1.3,0,0,0-.88-.27h-1.4A.05.05,0,0,0,453.86,160.84Zm2.42,5.14a1.1,1.1,0,0,0,0-1.55,1.23,1.23,0,0,0-.87-.28h-1.49a.05.05,0,0,0-.06.06v2a.05.05,0,0,0,.06.06h1.5A1.2,1.2,0,0,0,456.28,166Z" fill="#393d4f"/><path d="M459.73,160.59a.93.93,0,0,1-.27-.68.92.92,0,0,1,1-.95,1,1,0,1,1-.68,1.63Zm-.14,7.09a.13.13,0,0,1,0-.1v-5.89a.12.12,0,0,1,0-.1.14.14,0,0,1,.1-.05h1.41a.14.14,0,0,1,.1.05.12.12,0,0,1,0,.1v5.89a.14.14,0,0,1-.14.14h-1.41A.13.13,0,0,1,459.59,167.68Z" fill="#393d4f"/><path d="M466.06,162.87a.13.13,0,0,1-.1,0H464.8a.05.05,0,0,0-.06.06v2.55a.85.85,0,0,0,.17.58.63.63,0,0,0,.52.2h.39a.15.15,0,0,1,.11,0,.18.18,0,0,1,0,.1v1.14c0,.09-.05.14-.15.16l-.72,0a2.66,2.66,0,0,1-1.48-.33,1.41,1.41,0,0,1-.51-1.24V163a.05.05,0,0,0-.06-.06h-.68a.12.12,0,0,1-.1,0,.14.14,0,0,1,0-.1V161.7a.14.14,0,0,1,0-.1.12.12,0,0,1,.1,0h.68a.05.05,0,0,0,.06-.06v-1.43a.15.15,0,0,1,0-.1.16.16,0,0,1,.11-.05h1.34a.14.14,0,0,1,.1.05.12.12,0,0,1,0,.1v1.43a.05.05,0,0,0,.06.06H466a.14.14,0,0,1,.14.14v1.07A.13.13,0,0,1,466.06,162.87Z" fill="#393d4f"/><path d="M474.94,165a3.23,3.23,0,0,1-.22,1.24,2.43,2.43,0,0,1-1,1.12,2.93,2.93,0,0,1-1.56.41,2.87,2.87,0,0,1-1.59-.43,2.4,2.4,0,0,1-1-1.18,3,3,0,0,1-.22-1.18v-3.61a1.94,1.94,0,0,1,.34-1.14,2.17,2.17,0,0,1,1-.77,3.4,3.4,0,0,1,1.4-.27,3.33,3.33,0,0,1,1.38.27,2.18,2.18,0,0,1,.93.75,2,2,0,0,1,.33,1.13v.33a.12.12,0,0,1,0,.1.14.14,0,0,1-.1.05h-1.41a.14.14,0,0,1-.1-.05.12.12,0,0,1,0-.1v-.11a.9.9,0,0,0-.27-.66.93.93,0,0,0-.68-.26,1,1,0,0,0-.73.27.94.94,0,0,0-.28.69v1.13s0,0,0,0a0,0,0,0,0,0,0,2,2,0,0,1,1.31-.42,2.53,2.53,0,0,1,1.29.33,2.32,2.32,0,0,1,.9,1A3,3,0,0,1,474.94,165Zm-1.69,0a1.47,1.47,0,0,0-.19-.79,1,1,0,0,0-.88-.48.92.92,0,0,0-.9.49,1.61,1.61,0,0,0-.18.8,1.65,1.65,0,0,0,.16.74,1,1,0,0,0,1.81,0A1.5,1.5,0,0,0,473.25,165.06Z" fill="#393d4f"/><path d="M457.15,186.64a2,2,0,0,1,1.14,2,2.08,2.08,0,0,1-.79,1.76,3.42,3.42,0,0,1-2.08.59h-3.11a.14.14,0,0,1-.14-.14V182.7a.15.15,0,0,1,0-.11.18.18,0,0,1,.1,0h3q2.85,0,2.85,2.31a1.77,1.77,0,0,1-1,1.71S457.1,186.62,457.15,186.64Zm-3.29-2.58v1.88a.05.05,0,0,0,.06.06h1.4a1.3,1.3,0,0,0,.88-.27.87.87,0,0,0,.31-.72.92.92,0,0,0-.31-.74,1.3,1.3,0,0,0-.88-.27h-1.4A.05.05,0,0,0,453.86,184.06Zm2.42,5.15a1,1,0,0,0,.32-.78,1,1,0,0,0-.32-.77,1.23,1.23,0,0,0-.87-.28h-1.49a.05.05,0,0,0-.06.06v2a.05.05,0,0,0,.06.06h1.5A1.25,1.25,0,0,0,456.28,189.21Z" fill="#393d4f"/><path d="M459.73,183.82a.93.93,0,0,1-.27-.68.92.92,0,0,1,1-.95,1,1,0,1,1-.68,1.63Zm-.14,7.09a.13.13,0,0,1,0-.1v-5.89a.15.15,0,0,1,0-.11.18.18,0,0,1,.1,0h1.41a.18.18,0,0,1,.1,0,.15.15,0,0,1,0,.11v5.89a.14.14,0,0,1-.14.14h-1.41A.13.13,0,0,1,459.59,190.91Z" fill="#393d4f"/><path d="M466.06,186.1a.13.13,0,0,1-.1,0H464.8a.05.05,0,0,0-.06.06v2.54a.88.88,0,0,0,.17.59.62.62,0,0,0,.52.19h.39a.16.16,0,0,1,.11,0,.15.15,0,0,1,0,.1v1.14q0,.13-.15.15l-.72,0a2.66,2.66,0,0,1-1.48-.33,1.42,1.42,0,0,1-.51-1.24V186.2a.05.05,0,0,0-.06-.06h-.68a.12.12,0,0,1-.1,0,.14.14,0,0,1,0-.1v-1.07a.18.18,0,0,1,.15-.15h.68a.05.05,0,0,0,.06-.06V183.3a.14.14,0,0,1,.15-.15h1.34a.18.18,0,0,1,.1,0,.15.15,0,0,1,0,.11v1.42a.05.05,0,0,0,.06.06H466a.14.14,0,0,1,.1.05.12.12,0,0,1,0,.1V186A.13.13,0,0,1,466.06,186.1Z" fill="#393d4f"/><path d="M470.26,190.78l2.61-6.7c0-.05,0-.08-.05-.08h-2.24a.05.05,0,0,0-.06.06v.56a.14.14,0,0,1,0,.1.12.12,0,0,1-.1,0h-1.09a.14.14,0,0,1-.14-.14V182.7a.15.15,0,0,1,0-.11.18.18,0,0,1,.1,0h5.25a.18.18,0,0,1,.1,0,.15.15,0,0,1,0,.11v1.21a.45.45,0,0,1,0,.18l-2.59,6.75c0,.08-.08.11-.17.11h-1.5C470.26,191,470.22,190.9,470.26,190.78Z" fill="#393d4f"/><path d="M325.79,100.3,324.29,97a.07.07,0,0,0-.07,0h-1.11a.05.05,0,0,0-.06.06v3.27a.18.18,0,0,1-.15.15h-1.4a.12.12,0,0,1-.1,0,.12.12,0,0,1,0-.1V92.15a.13.13,0,0,1,0-.1.12.12,0,0,1,.1,0h3.43a2.8,2.8,0,0,1,1.35.31,2.15,2.15,0,0,1,.9.89,2.7,2.7,0,0,1,.32,1.33,2.41,2.41,0,0,1-.41,1.4,2.2,2.2,0,0,1-1.14.82s-.05,0,0,.08l1.64,3.4a.25.25,0,0,1,0,.07c0,.06,0,.1-.13.1H326A.18.18,0,0,1,325.79,100.3Zm-2.74-6.78v2a.05.05,0,0,0,.06.06h1.57a1.15,1.15,0,0,0,.82-.3,1,1,0,0,0,.32-.78,1.07,1.07,0,0,0-.32-.79,1.15,1.15,0,0,0-.82-.3h-1.57A.05.05,0,0,0,323.05,93.52Z" fill="#393d4f"/><path d="M328.37,100.36s0-.07,0-.12l2.32-4a0,0,0,0,0,0-.07l-2.32-4,0-.07c0-.06.05-.09.13-.09H330a.2.2,0,0,1,.18.09l1.56,2.75c0,.05.05.05.07,0l1.56-2.75a.2.2,0,0,1,.18-.09h1.51c.06,0,.1,0,.12,0a.09.09,0,0,1,0,.12l-2.33,4a.09.09,0,0,0,0,.07l2.33,4,0,.07c0,.06,0,.1-.13.1h-1.51a.21.21,0,0,1-.18-.1l-1.56-2.74s-.05,0-.07,0l-1.57,2.74a.21.21,0,0,1-.18.1h-1.52A.17.17,0,0,1,328.37,100.36Z" fill="#393d4f"/><path d="M328.14,115.18a.12.12,0,0,1,0,.1v1.17a.15.15,0,0,1,0,.11.18.18,0,0,1-.1,0h-2.15a.05.05,0,0,0-.06.06v6.73a.14.14,0,0,1-.14.14h-1.41a.14.14,0,0,1-.14-.14v-6.73a.05.05,0,0,0-.06-.06H322a.18.18,0,0,1-.1,0,.15.15,0,0,1,0-.11v-1.17a.12.12,0,0,1,0-.1.14.14,0,0,1,.1-.05H328A.14.14,0,0,1,328.14,115.18Z" fill="#393d4f"/><path d="M328.92,123.49a.09.09,0,0,1,0-.12l2.33-4a.09.09,0,0,0,0-.07l-2.33-4,0-.07c0-.06.05-.1.14-.1h1.52a.21.21,0,0,1,.18.1L332.3,118s.05,0,.07,0l1.56-2.75a.21.21,0,0,1,.18-.1h1.51a.14.14,0,0,1,.12.05s0,.07,0,.12l-2.33,4v.07l2.33,4,0,.07c0,.06-.05.09-.14.09h-1.51a.2.2,0,0,1-.18-.09l-1.56-2.74s-.05,0-.07,0l-1.57,2.74a.2.2,0,0,1-.18.09H329C329,123.53,328.94,123.52,328.92,123.49Z" fill="#393d4f"/><g id="ba57f164-5975-4edc-8161-dcba8c85f636" data-name="Arrow (.75 pt)"><line x1="57.14" y1="26.07" x2="84.67" y2="26.07" fill="none" stroke="#393d4f" stroke-width="1.5"/><polygon points="82.2 29.64 95.7 26.02 82.2 22.41 82.2 29.64" fill="#393d4f"/><line x1="57.14" y1="48.63" x2="84.67" y2="48.63" fill="none" stroke="#393d4f" stroke-width="1.5"/><polygon points="82.2 52.2 95.7 48.58 82.2 44.96 82.2 52.2" fill="#393d4f"/><line x1="57.14" y1="71.85" x2="84.67" y2="71.85" fill="none" stroke="#393d4f" stroke-width="1.5"/><polygon points="82.2 75.43 95.7 71.81 82.2 68.19 82.2 75.43" fill="#393d4f"/><line x1="57.14" y1="94.98" x2="84.67" y2="94.98" fill="none" stroke="#393d4f" stroke-width="1.5"/><polygon points="82.2 98.55 95.7 94.94 82.2 91.32 82.2 98.55" fill="#393d4f"/><line x1="57.14" y1="118.31" x2="84.67" y2="118.31" fill="none" stroke="#393d4f" stroke-width="1.5"/><polygon points="82.2 121.89 95.7 118.27 82.2 114.65 82.2 121.89" fill="#393d4f"/><line x1="57.14" y1="141.44" x2="84.67" y2="141.44" fill="none" stroke="#393d4f" stroke-width="1.5"/><polygon points="82.2 145.01 95.7 141.39 82.2 137.78 82.2 145.01" fill="#393d4f"/><line x1="57.14" y1="164.15" x2="84.67" y2="164.15" fill="none" stroke="#393d4f" stroke-width="1.5"/><polygon points="82.2 167.72 95.7 164.11 82.2 160.49 82.2 167.72" fill="#393d4f"/><line x1="57.14" y1="187.38" x2="84.67" y2="187.38" fill="none" stroke="#393d4f" stroke-width="1.5"/><polygon points="82.2 190.95 95.7 187.34 82.2 183.72 82.2 190.95" fill="#393d4f"/><line x1="398.49" y1="26.07" x2="437.35" y2="26.07" fill="none" stroke="#393d4f" stroke-width="1.5"/><polygon points="434.89 29.64 448.38 26.02 434.89 22.41 434.89 29.64" fill="#393d4f"/><line x1="398.49" y1="48.63" x2="437.35" y2="48.63" fill="none" stroke="#393d4f" stroke-width="1.5"/><polygon points="434.89 52.2 448.38 48.58 434.89 44.96 434.89 52.2" fill="#393d4f"/><line x1="398.49" y1="71.85" x2="437.35" y2="71.85" fill="none" stroke="#393d4f" stroke-width="1.5"/><polygon points="434.89 75.43 448.38 71.81 434.89 68.19 434.89 75.43" fill="#393d4f"/><line x1="398.49" y1="94.98" x2="437.35" y2="94.98" fill="none" stroke="#393d4f" stroke-width="1.5"/><polygon points="434.89 98.55 448.38 94.94 434.89 91.32 434.89 98.55" fill="#393d4f"/><line x1="398.49" y1="118.31" x2="437.35" y2="118.31" fill="none" stroke="#393d4f" stroke-width="1.5"/><polygon points="434.89 121.89 448.38 118.27 434.89 114.65 434.89 121.89" fill="#393d4f"/><line x1="398.49" y1="141.44" x2="437.35" y2="141.44" fill="none" stroke="#393d4f" stroke-width="1.5"/><polygon points="434.89 145.01 448.38 141.39 434.89 137.78 434.89 145.01" fill="#393d4f"/><line x1="398.49" y1="164.15" x2="437.35" y2="164.15" fill="none" stroke="#393d4f" stroke-width="1.5"/><polygon points="434.89 167.72 448.38 164.11 434.89 160.49 434.89 167.72" fill="#393d4f"/><line x1="398.49" y1="187.38" x2="437.35" y2="187.38" fill="none" stroke="#393d4f" stroke-width="1.5"/><polygon points="434.89 190.95 448.38 187.34 434.89 183.72 434.89 190.95" fill="#393d4f"/></g><path d="M327.47,26.64a2.62,2.62,0,0,1-1.09-1,2.84,2.84,0,0,1-.39-1.5V18.64a.13.13,0,0,1,0-.1.18.18,0,0,1,.1,0h1.41a.18.18,0,0,1,.1,0,.13.13,0,0,1,0,.1v5.49a1.38,1.38,0,0,0,.39,1,1.54,1.54,0,0,0,2.05,0,1.38,1.38,0,0,0,.39-1V18.64a.18.18,0,0,1,0-.1.21.21,0,0,1,.11,0h1.4a.18.18,0,0,1,.1,0,.13.13,0,0,1,0,.1v5.48a2.84,2.84,0,0,1-.39,1.5,2.62,2.62,0,0,1-1.09,1,3.85,3.85,0,0,1-3.25,0Z" fill="#393d4f"/><path d="M338.47,26.78l-.36-1.18a.07.07,0,0,0-.06,0H335.1a.05.05,0,0,0-.06,0l-.35,1.18a.16.16,0,0,1-.16.12H333a.12.12,0,0,1-.11,0,.14.14,0,0,1,0-.13l2.59-8.11a.15.15,0,0,1,.16-.12h1.88a.16.16,0,0,1,.16.12l2.59,8.11a.13.13,0,0,1,0,.06c0,.07,0,.11-.13.11h-1.53A.14.14,0,0,1,338.47,26.78Zm-3-2.53h2.11c.05,0,.06,0,.05-.07l-1.08-3.57s0,0,0,0a.08.08,0,0,0,0,0l-1,3.57C335.46,24.23,335.48,24.25,335.52,24.25Z" fill="#393d4f"/><path d="M345.46,26.79,344,23.47a.08.08,0,0,0-.07,0h-1.11a.05.05,0,0,0-.06.06v3.28a.14.14,0,0,1-.05.1.12.12,0,0,1-.1,0h-1.4a.12.12,0,0,1-.1,0,.14.14,0,0,1-.05-.1V18.64a.14.14,0,0,1,.05-.1.15.15,0,0,1,.1,0h3.43a2.8,2.8,0,0,1,1.35.31,2.2,2.2,0,0,1,.9.89,2.73,2.73,0,0,1,.32,1.33,2.39,2.39,0,0,1-.41,1.4,2.14,2.14,0,0,1-1.14.82.07.07,0,0,0,0,.09l1.64,3.39s0,.06,0,.07,0,.1-.13.1h-1.48A.18.18,0,0,1,345.46,26.79ZM342.72,20v2a.05.05,0,0,0,.06.06h1.57a1.15,1.15,0,0,0,.82-.3,1,1,0,0,0,.32-.78,1,1,0,0,0-.32-.78,1.12,1.12,0,0,0-.82-.31h-1.57A.05.05,0,0,0,342.72,20Z" fill="#393d4f"/><path d="M354,18.54a.13.13,0,0,1,0,.1v1.18a.14.14,0,0,1-.14.14h-2.15a.05.05,0,0,0-.06.06v6.74a.18.18,0,0,1,0,.1.15.15,0,0,1-.11,0h-1.4a.14.14,0,0,1-.14-.14V20a.05.05,0,0,0-.06-.06h-2.09a.12.12,0,0,1-.1,0,.14.14,0,0,1-.05-.1V18.64a.14.14,0,0,1,.05-.1.15.15,0,0,1,.1,0h6.05A.18.18,0,0,1,354,18.54Z" fill="#393d4f"/><path d="M356.84,25.42a0,0,0,0,0,.05,0h3.25a.14.14,0,0,1,.14.14v1.17a.14.14,0,0,1-.14.14h-5.4a.14.14,0,0,1-.14-.14V25.65a.24.24,0,0,1,.07-.18c.39-.38.79-.8,1.2-1.25s.66-.74.77-.85c.22-.26.45-.51.68-.75a3.46,3.46,0,0,0,1.09-1.8.89.89,0,0,0-.3-.69,1.26,1.26,0,0,0-1.56,0,.9.9,0,0,0-.3.71v.3a.14.14,0,0,1-.14.14h-1.42a.14.14,0,0,1-.14-.14v-.56a2,2,0,0,1,.41-1.15,2.27,2.27,0,0,1,1-.76,3.48,3.48,0,0,1,1.39-.27,3.26,3.26,0,0,1,1.48.32,2.5,2.5,0,0,1,1,.86,2.26,2.26,0,0,1,.34,1.2,2.47,2.47,0,0,1-.25,1,5.49,5.49,0,0,1-.76,1.14c-.25.31-.52.62-.8.93L357,25.2l-.18.18S356.83,25.41,356.84,25.42Z" fill="#393d4f"/></svg>